<svg width="367" height="217" viewBox="0 0 367 217" fill="none" xmlns="http://www.w3.org/2000/svg">
<g filter="url(#filter0_ddi_3958_4773)">
<rect x="5" y="169.5" width="52" height="52" rx="26" transform="rotate(-90 5 169.5)" fill="white"/>
<rect x="4.25" y="170.25" width="53.5" height="53.5" rx="26.75" transform="rotate(-90 4.25 170.25)" stroke="#CAC2FF" stroke-width="1.5"/>
<path d="M39.053 142.762L28.553 154.012C28.4417 154.13 28.2949 154.21 28.1346 154.238C27.9742 154.266 27.8092 154.241 27.6643 154.167C27.5194 154.093 27.4025 153.973 27.3313 153.827C27.2601 153.681 27.2385 153.515 27.2696 153.355L28.644 146.481L23.2411 144.452C23.1251 144.409 23.0216 144.337 22.94 144.244C22.8583 144.151 22.801 144.039 22.7731 143.918C22.7453 143.797 22.7477 143.672 22.7803 143.552C22.8129 143.433 22.8746 143.323 22.9599 143.233L33.4599 131.983C33.5712 131.865 33.718 131.785 33.8784 131.757C34.0387 131.729 34.2037 131.754 34.3486 131.828C34.4935 131.902 34.6104 132.022 34.6816 132.168C34.7528 132.314 34.7745 132.48 34.7433 132.64L33.3652 139.522L38.768 141.548C38.8832 141.591 38.9858 141.663 39.0669 141.756C39.1479 141.848 39.2048 141.96 39.2326 142.08C39.2604 142.2 39.2583 142.325 39.2263 142.444C39.1943 142.563 39.1335 142.672 39.0493 142.762H39.053Z" fill="#F7931A"/>
</g>
<g filter="url(#filter1_ddi_3958_4773)">
<rect x="5" y="94.5" width="52" height="52" rx="26" transform="rotate(-90 5 94.5)" fill="white"/>
<rect x="4.25" y="95.25" width="53.5" height="53.5" rx="26.75" transform="rotate(-90 4.25 95.25)" stroke="#CAC2FF" stroke-width="1.5"/>
<path d="M40.8085 75.1953V77.2893L36.8086 79.2893V75.3393L38.5306 76.3333L38.8646 76.1673L40.8085 75.1953Z" fill="#FF9589" stroke="white" stroke-width="0.336191" stroke-linecap="round" stroke-linejoin="round"/>
<path d="M42.5273 70.3828V74.3328L40.8053 75.1948L38.8614 76.1668L38.5273 76.3328V72.3828L42.5273 70.3828Z" fill="#FF9589" stroke="white" stroke-width="0.336191" stroke-linecap="round" stroke-linejoin="round"/>
<path d="M37.3638 71.7108L33.4977 69.4788L29.6197 67.2388C29.5657 67.0308 29.5057 66.8248 29.4377 66.6188C29.0797 65.5028 28.5338 64.4188 27.8018 63.3628C27.6178 63.0988 27.4277 62.8468 27.2297 62.6088C26.4977 61.7188 25.6738 61.0108 24.7578 60.4828C24.4098 60.2808 24.0738 60.1228 23.7518 60.0048C22.8498 59.6728 22.0477 59.6628 21.3457 59.9748L21.0997 60.0988C20.0958 60.6708 19.5938 61.7808 19.5938 63.4268C19.5938 65.0728 20.0958 66.7608 21.0997 68.4928C22.1037 70.2248 23.3238 71.5048 24.7578 72.3328C25.9198 73.0028 26.9338 73.2148 27.8018 72.9668C27.9518 72.9248 28.0957 72.8688 28.2297 72.8068L28.3797 72.7308C28.9457 72.4148 29.3577 71.9028 29.6197 71.1888L30.4757 71.6828L33.3638 73.3508V77.3007L36.8058 79.2887V75.3388L38.5277 76.3328V72.3828L37.3638 71.7108ZM26.2877 68.2088C26.2077 68.3328 26.1037 68.4308 25.9737 68.5048C25.6357 68.6968 25.2318 68.6548 24.7578 68.3828C24.2858 68.1088 23.8797 67.6828 23.5417 67.1008C23.2057 66.5188 23.0377 65.9568 23.0377 65.4128C23.0377 64.8688 23.2057 64.5028 23.5417 64.3108C23.6977 64.2228 23.8678 64.1828 24.0538 64.1928C24.2678 64.2048 24.5018 64.2868 24.7578 64.4328C25.2318 64.7048 25.6357 65.1328 25.9737 65.7148C26.3117 66.2948 26.4797 66.8588 26.4797 67.4008C26.4797 67.7368 26.4157 68.0068 26.2877 68.2088Z" fill="#FFD1CC" stroke="white" stroke-width="0.336191" stroke-linecap="round" stroke-linejoin="round"/>
<path d="M42.5291 70.3833L38.5291 72.3833L37.3651 71.7113L33.4991 69.4793L29.6211 67.2393L33.6211 65.2393L42.5291 70.3833Z" fill="#FF9589" stroke="white" stroke-width="0.336191" stroke-linecap="round" stroke-linejoin="round"/>
<path d="M26.4849 67.4009C26.4849 67.7369 26.421 68.0069 26.293 68.2089C26.213 68.3329 26.1089 68.4309 25.9789 68.5049C25.6409 68.6969 25.237 68.6549 24.763 68.3829C24.291 68.1089 23.885 67.6829 23.547 67.1009C23.211 66.5189 23.043 65.9569 23.043 65.4129C23.043 64.8689 23.211 64.5029 23.547 64.3109C23.703 64.2229 23.873 64.1829 24.059 64.1929C24.273 64.2049 24.507 64.2869 24.763 64.4329C25.237 64.7049 25.6409 65.1329 25.9789 65.7149C26.3169 66.2949 26.4849 66.8589 26.4849 67.4009Z" fill="#FF9589" stroke="white" stroke-width="0.336191" stroke-linecap="round" stroke-linejoin="round"/>
<path d="M33.6216 65.2386L29.6216 67.2386C29.5676 67.0306 29.5077 66.8246 29.4397 66.6186C29.0817 65.5026 28.5357 64.4186 27.8037 63.3626C27.6197 63.0986 27.4296 62.8466 27.2316 62.6086C26.4996 61.7186 25.6757 61.0106 24.7597 60.4826C24.4117 60.2806 24.0757 60.1226 23.7537 60.0046C22.8517 59.6726 22.0497 59.6626 21.3477 59.9746L25.1017 58.0986C26.1057 57.5266 27.3257 57.6546 28.7597 58.4826C29.9217 59.1526 30.9357 60.1126 31.8037 61.3626C32.6717 62.6126 33.2776 63.9046 33.6216 65.2386Z" fill="#FF9589" stroke="white" stroke-width="0.336191" stroke-linecap="round" stroke-linejoin="round"/>
<path d="M30.4749 71.6825L28.3789 72.7305C28.9449 72.4145 29.3569 71.9025 29.6189 71.1885L30.4749 71.6825Z" fill="#FF9589" stroke="white" stroke-width="0.336191" stroke-linecap="round" stroke-linejoin="round"/>
</g>
<g filter="url(#filter2_ddi_3958_4773)">
<rect x="80" y="207" width="52" height="52" rx="26" transform="rotate(-90 80 207)" fill="white"/>
<rect x="79.25" y="207.75" width="53.5" height="53.5" rx="26.75" transform="rotate(-90 79.25 207.75)" stroke="#CAC2FF" stroke-width="1.5"/>
<path d="M115.805 187.696V189.79L111.805 191.79V187.84L113.527 188.834L113.861 188.668L115.805 187.696Z" fill="#008E8E" stroke="white" stroke-width="0.336191" stroke-linecap="round" stroke-linejoin="round"/>
<path d="M117.527 182.884V186.834L115.805 187.696L113.861 188.668L113.527 188.834V184.884L117.527 182.884Z" fill="#008E8E" stroke="white" stroke-width="0.336191" stroke-linecap="round" stroke-linejoin="round"/>
<path d="M112.364 184.212L108.498 181.98L104.62 179.74C104.566 179.532 104.506 179.326 104.438 179.12C104.08 178.004 103.534 176.92 102.802 175.864C102.618 175.6 102.428 175.348 102.23 175.11C101.498 174.22 100.674 173.512 99.7578 172.984C99.4098 172.782 99.0738 172.624 98.7518 172.506C97.8498 172.174 97.0477 172.164 96.3457 172.476L96.0997 172.6C95.0958 173.172 94.5938 174.282 94.5938 175.928C94.5938 177.574 95.0958 179.262 96.0997 180.994C97.1037 182.726 98.3238 184.006 99.7578 184.834C100.92 185.504 101.934 185.716 102.802 185.468C102.952 185.426 103.096 185.37 103.23 185.308L103.38 185.232C103.946 184.916 104.358 184.404 104.62 183.69L105.476 184.184L108.364 185.852V189.802L111.806 191.79V187.84L113.528 188.834V184.884L112.364 184.212ZM101.288 180.71C101.208 180.834 101.104 180.932 100.974 181.006C100.636 181.198 100.232 181.156 99.7578 180.884C99.2858 180.61 98.8797 180.184 98.5417 179.602C98.2057 179.02 98.0377 178.458 98.0377 177.914C98.0377 177.37 98.2057 177.004 98.5417 176.812C98.6977 176.724 98.8678 176.684 99.0538 176.694C99.2678 176.706 99.5018 176.788 99.7578 176.934C100.232 177.206 100.636 177.634 100.974 178.216C101.312 178.796 101.48 179.36 101.48 179.902C101.48 180.238 101.416 180.508 101.288 180.71Z" fill="#99FFFF" stroke="white" stroke-width="0.336191" stroke-linecap="round" stroke-linejoin="round"/>
<path d="M117.525 182.883L113.525 184.883L112.361 184.211L108.495 181.979L104.617 179.739L108.617 177.739L117.525 182.883Z" fill="#008E8E" stroke="white" stroke-width="0.336191" stroke-linecap="round" stroke-linejoin="round"/>
<path d="M101.481 179.902C101.481 180.238 101.417 180.508 101.289 180.71C101.209 180.834 101.105 180.932 100.975 181.006C100.637 181.198 100.233 181.156 99.7591 180.884C99.2871 180.61 98.8811 180.184 98.5431 179.602C98.2071 179.02 98.0391 178.458 98.0391 177.914C98.0391 177.37 98.2071 177.004 98.5431 176.812C98.6991 176.724 98.8691 176.684 99.0551 176.694C99.2691 176.706 99.5031 176.788 99.7591 176.934C100.233 177.206 100.637 177.634 100.975 178.216C101.313 178.796 101.481 179.36 101.481 179.902Z" fill="#008E8E" stroke="white" stroke-width="0.336191" stroke-linecap="round" stroke-linejoin="round"/>
<path d="M108.622 177.74L104.622 179.74C104.568 179.532 104.508 179.326 104.44 179.12C104.082 178.004 103.536 176.92 102.804 175.864C102.62 175.6 102.43 175.348 102.232 175.11C101.5 174.22 100.676 173.512 99.7597 172.984C99.4117 172.782 99.0757 172.624 98.7537 172.506C97.8517 172.174 97.0497 172.164 96.3477 172.476L100.102 170.6C101.106 170.028 102.326 170.156 103.76 170.984C104.922 171.654 105.936 172.614 106.804 173.864C107.672 175.114 108.278 176.406 108.622 177.74Z" fill="#008E8E" stroke="white" stroke-width="0.336191" stroke-linecap="round" stroke-linejoin="round"/>
<path d="M105.475 184.183L103.379 185.231C103.945 184.915 104.357 184.403 104.619 183.689L105.475 184.183Z" fill="#008E8E" stroke="white" stroke-width="0.336191" stroke-linecap="round" stroke-linejoin="round"/>
</g>
<g filter="url(#filter3_ddi_3958_4773)">
<rect x="80" y="132" width="52" height="52" rx="26" transform="rotate(-90 80 132)" fill="white"/>
<rect x="79.25" y="132.75" width="53.5" height="53.5" rx="26.75" transform="rotate(-90 79.25 132.75)" stroke="#CAC2FF" stroke-width="1.5"/>
<g clip-path="url(#clip0_3958_4773)">
<path d="M112.756 105.999C112.427 105.563 112.043 105.179 111.61 104.853C111.304 104.624 110.973 104.422 110.621 104.257C110.759 104.084 110.884 103.898 110.993 103.707C111.385 103.032 111.607 102.25 111.607 101.415C111.607 100.579 111.383 99.7974 110.993 99.1225C110.591 98.4272 110.01 97.8465 109.315 97.4441C108.958 97.2378 108.574 97.0799 108.169 96.9729V94.5381H105.877V96.8303H104.73V94.5381H102.438V96.8303H99V99.1225H100.146V112.876H99V115.168H102.438V117.46H104.73V115.168H105.877V117.46H108.169V115.168C108.561 115.168 108.946 115.13 109.315 115.053C110.16 114.882 110.94 114.523 111.607 114.024C112.04 113.698 112.427 113.311 112.753 112.878C113.471 111.92 113.899 110.729 113.899 109.44C113.899 108.151 113.474 106.957 112.756 105.999ZM102.441 99.1225H107.025C107.443 99.1225 107.835 99.2345 108.171 99.4306C108.856 99.8254 109.317 100.567 109.317 101.415C109.317 102.263 108.856 103.004 108.171 103.399C107.835 103.595 107.443 103.707 107.025 103.707H102.441V99.1225ZM109.317 112.679C108.958 112.807 108.574 112.876 108.171 112.876H102.441V105.999H108.171C108.574 105.999 108.958 106.068 109.317 106.195C110.654 106.669 111.61 107.942 111.61 109.437C111.61 110.932 110.654 112.208 109.317 112.679Z" fill="#F7931A"/>
</g>
</g>
<g filter="url(#filter4_ddi_3958_4773)">
<rect x="80" y="57" width="52" height="52" rx="26" transform="rotate(-90 80 57)" fill="white"/>
<rect x="79.25" y="57.75" width="53.5" height="53.5" rx="26.75" transform="rotate(-90 79.25 57.75)" stroke="#CAC2FF" stroke-width="1.5"/>
<path d="M113.873 27.9998C113.536 27.998 113.201 28.0616 112.888 28.1873L110.029 24.6191C110.264 24.2807 110.416 23.8917 110.473 23.4837C110.53 23.0756 110.49 22.6599 110.356 22.2702C110.222 21.8805 109.999 21.5278 109.704 21.2405C109.408 20.9532 109.049 20.7395 108.656 20.6166C108.263 20.4937 107.846 20.4651 107.44 20.5331C107.034 20.601 106.649 20.7637 106.317 21.0079C105.985 21.2521 105.716 21.571 105.53 21.9387C105.344 22.3065 105.248 22.7128 105.248 23.1248C105.248 23.2168 105.253 23.3088 105.262 23.4004L100.906 25.2154C100.643 24.8935 100.308 24.6385 99.9279 24.4713C99.5478 24.3041 99.1334 24.2294 98.7188 24.2535C98.3041 24.2776 97.9012 24.3998 97.5429 24.6099C97.1847 24.82 96.8815 25.1122 96.6581 25.4623C96.4347 25.8124 96.2976 26.2106 96.258 26.624C96.2185 27.0374 96.2775 27.4543 96.4304 27.8405C96.5833 28.2266 96.8256 28.571 97.1375 28.8452C97.4494 29.1195 97.8218 29.3159 98.2244 29.4182L98.3978 33.7663C98.0004 33.902 97.6413 34.1311 97.3507 34.4343C97.0602 34.7375 96.8466 35.106 96.728 35.5088C96.6093 35.9117 96.589 36.3371 96.6688 36.7494C96.7487 37.1617 96.9262 37.5488 97.1867 37.8783C97.4471 38.2078 97.7827 38.4699 98.1655 38.6428C98.5482 38.8157 98.9668 38.8942 99.3861 38.8718C99.8055 38.8493 100.213 38.7266 100.575 38.5139C100.938 38.3013 101.243 38.0048 101.467 37.6494L105.998 38.9188C106.004 39.341 106.113 39.7555 106.313 40.127C106.514 40.4985 106.801 40.8161 107.151 41.0528C107.501 41.2896 107.902 41.4385 108.322 41.4869C108.741 41.5354 109.166 41.4819 109.561 41.3311C109.955 41.1802 110.307 40.9365 110.587 40.6205C110.867 40.3045 111.067 39.9256 111.169 39.516C111.272 39.1063 111.274 38.678 111.176 38.2674C111.077 37.8568 110.881 37.476 110.604 37.1573L113.155 33.1494C113.516 33.2522 113.895 33.2764 114.266 33.2203C114.637 33.1641 114.992 33.0291 115.307 32.8241C115.621 32.6192 115.888 32.3492 116.089 32.0323C116.291 31.7155 116.422 31.3591 116.474 30.9873C116.525 30.6155 116.497 30.2369 116.39 29.8771C116.283 29.5172 116.1 29.1845 115.854 28.9013C115.607 28.6182 115.303 28.3912 114.961 28.2356C114.62 28.0801 114.249 27.9997 113.873 27.9998ZM100.672 28.7835L104.659 31.0935L100.772 34.1141C100.508 33.9252 100.211 33.7869 99.8969 33.7063L99.7234 29.3582C100.077 29.2364 100.4 29.0405 100.672 28.7835ZM108.02 25.7498C108.308 25.734 108.591 25.6707 108.858 25.5623L111.717 29.1304C111.535 29.3922 111.402 29.6851 111.325 29.9948L106.959 30.2029L108.02 25.7498ZM101.694 35.2982L105.623 32.2429L107.117 36.7269C106.833 36.9276 106.591 37.1825 106.405 37.4769L101.873 36.2057C101.868 35.895 101.807 35.5877 101.694 35.2982ZM108.623 36.2498H108.54L107.023 31.7001L111.396 31.4919C111.507 31.8018 111.675 32.088 111.891 32.3357L109.34 36.3435C109.107 36.2793 108.865 36.2478 108.623 36.2498ZM105.841 24.7841C106.042 25.0298 106.286 25.2374 106.561 25.3973L105.501 29.8457L101.426 27.486C101.474 27.2858 101.498 27.0806 101.498 26.8748C101.498 26.7827 101.493 26.6907 101.484 26.5991L105.841 24.7841Z" fill="url(#paint0_linear_3958_4773)"/>
</g>
<g filter="url(#filter5_ddi_3958_4773)">
<rect x="155" y="169.5" width="52" height="52" rx="26" transform="rotate(-90 155 169.5)" fill="white"/>
<rect x="154.25" y="170.25" width="53.5" height="53.5" rx="26.75" transform="rotate(-90 154.25 170.25)" stroke="#CAC2FF" stroke-width="1.5"/>
<path d="M189.053 142.762L178.553 154.012C178.442 154.13 178.295 154.21 178.135 154.238C177.974 154.266 177.809 154.241 177.664 154.167C177.519 154.093 177.403 153.973 177.331 153.827C177.26 153.681 177.238 153.515 177.27 153.355L178.644 146.481L173.241 144.452C173.125 144.409 173.022 144.337 172.94 144.244C172.858 144.151 172.801 144.039 172.773 143.918C172.745 143.797 172.748 143.672 172.78 143.552C172.813 143.433 172.875 143.323 172.96 143.233L183.46 131.983C183.571 131.865 183.718 131.785 183.878 131.757C184.039 131.729 184.204 131.754 184.349 131.828C184.494 131.902 184.61 132.022 184.682 132.168C184.753 132.314 184.774 132.48 184.743 132.64L183.365 139.522L188.768 141.548C188.883 141.591 188.986 141.663 189.067 141.756C189.148 141.848 189.205 141.96 189.233 142.08C189.26 142.2 189.258 142.325 189.226 142.444C189.194 142.563 189.133 142.672 189.049 142.762H189.053Z" fill="#F7931A"/>
</g>
<g filter="url(#filter6_ddi_3958_4773)">
<rect x="155" y="94.5" width="52" height="52" rx="26" transform="rotate(-90 155 94.5)" fill="white"/>
<rect x="154.25" y="95.25" width="53.5" height="53.5" rx="26.75" transform="rotate(-90 154.25 95.25)" stroke="#CAC2FF" stroke-width="1.5"/>
<path d="M190.809 75.1953V77.2893L186.809 79.2893V75.3393L188.531 76.3333L188.865 76.1673L190.809 75.1953Z" fill="#FF9589" stroke="white" stroke-width="0.336191" stroke-linecap="round" stroke-linejoin="round"/>
<path d="M192.527 70.3828V74.3328L190.805 75.1948L188.861 76.1668L188.527 76.3328V72.3828L192.527 70.3828Z" fill="#FF9589" stroke="white" stroke-width="0.336191" stroke-linecap="round" stroke-linejoin="round"/>
<path d="M187.364 71.7108L183.498 69.4788L179.62 67.2388C179.566 67.0308 179.506 66.8248 179.438 66.6188C179.08 65.5028 178.534 64.4188 177.802 63.3628C177.618 63.0988 177.428 62.8468 177.23 62.6088C176.498 61.7188 175.674 61.0108 174.758 60.4828C174.41 60.2808 174.074 60.1228 173.752 60.0048C172.85 59.6728 172.048 59.6628 171.346 59.9748L171.1 60.0988C170.096 60.6708 169.594 61.7808 169.594 63.4268C169.594 65.0728 170.096 66.7608 171.1 68.4928C172.104 70.2248 173.324 71.5048 174.758 72.3328C175.92 73.0028 176.934 73.2148 177.802 72.9668C177.952 72.9248 178.096 72.8688 178.23 72.8068L178.38 72.7308C178.946 72.4148 179.358 71.9028 179.62 71.1888L180.476 71.6828L183.364 73.3508V77.3007L186.806 79.2887V75.3388L188.528 76.3328V72.3828L187.364 71.7108ZM176.288 68.2088C176.208 68.3328 176.104 68.4308 175.974 68.5048C175.636 68.6968 175.232 68.6548 174.758 68.3828C174.286 68.1088 173.88 67.6828 173.542 67.1008C173.206 66.5188 173.038 65.9568 173.038 65.4128C173.038 64.8688 173.206 64.5028 173.542 64.3108C173.698 64.2228 173.868 64.1828 174.054 64.1928C174.268 64.2048 174.502 64.2868 174.758 64.4328C175.232 64.7048 175.636 65.1328 175.974 65.7148C176.312 66.2948 176.48 66.8588 176.48 67.4008C176.48 67.7368 176.416 68.0068 176.288 68.2088Z" fill="#FFD1CC" stroke="white" stroke-width="0.336191" stroke-linecap="round" stroke-linejoin="round"/>
<path d="M192.529 70.3833L188.529 72.3833L187.365 71.7113L183.499 69.4793L179.621 67.2393L183.621 65.2393L192.529 70.3833Z" fill="#FF9589" stroke="white" stroke-width="0.336191" stroke-linecap="round" stroke-linejoin="round"/>
<path d="M176.485 67.4009C176.485 67.7369 176.421 68.0069 176.293 68.2089C176.213 68.3329 176.109 68.4309 175.979 68.5049C175.641 68.6969 175.237 68.6549 174.763 68.3829C174.291 68.1089 173.885 67.6829 173.547 67.1009C173.211 66.5189 173.043 65.9569 173.043 65.4129C173.043 64.8689 173.211 64.5029 173.547 64.3109C173.703 64.2229 173.873 64.1829 174.059 64.1929C174.273 64.2049 174.507 64.2869 174.763 64.4329C175.237 64.7049 175.641 65.1329 175.979 65.7149C176.317 66.2949 176.485 66.8589 176.485 67.4009Z" fill="#FF9589" stroke="white" stroke-width="0.336191" stroke-linecap="round" stroke-linejoin="round"/>
<path d="M183.622 65.2386L179.622 67.2386C179.568 67.0306 179.508 66.8246 179.44 66.6186C179.082 65.5026 178.536 64.4186 177.804 63.3626C177.62 63.0986 177.43 62.8466 177.232 62.6086C176.5 61.7186 175.676 61.0106 174.76 60.4826C174.412 60.2806 174.076 60.1226 173.754 60.0046C172.852 59.6726 172.05 59.6626 171.348 59.9746L175.102 58.0986C176.106 57.5266 177.326 57.6546 178.76 58.4826C179.922 59.1526 180.936 60.1126 181.804 61.3626C182.672 62.6126 183.278 63.9046 183.622 65.2386Z" fill="#FF9589" stroke="white" stroke-width="0.336191" stroke-linecap="round" stroke-linejoin="round"/>
<path d="M180.475 71.6825L178.379 72.7305C178.945 72.4145 179.357 71.9025 179.619 71.1885L180.475 71.6825Z" fill="#FF9589" stroke="white" stroke-width="0.336191" stroke-linecap="round" stroke-linejoin="round"/>
</g>
<g filter="url(#filter7_ddi_3958_4773)">
<rect x="230" y="207" width="52" height="52" rx="26" transform="rotate(-90 230 207)" fill="white"/>
<rect x="229.25" y="207.75" width="53.5" height="53.5" rx="26.75" transform="rotate(-90 229.25 207.75)" stroke="#CAC2FF" stroke-width="1.5"/>
<g clip-path="url(#clip1_3958_4773)">
<path d="M262.756 180.999C262.427 180.563 262.043 180.179 261.61 179.853C261.304 179.624 260.973 179.422 260.621 179.257C260.759 179.084 260.884 178.898 260.993 178.707C261.385 178.032 261.607 177.25 261.607 176.415C261.607 175.579 261.383 174.797 260.993 174.122C260.591 173.427 260.01 172.846 259.315 172.444C258.958 172.238 258.574 172.08 258.169 171.973V169.538H255.877V171.83H254.73V169.538H252.438V171.83H249V174.122H250.146V187.876H249V190.168H252.438V192.46H254.73V190.168H255.877V192.46H258.169V190.168C258.561 190.168 258.946 190.13 259.315 190.053C260.16 189.882 260.94 189.523 261.607 189.024C262.04 188.698 262.427 188.311 262.753 187.878C263.471 186.92 263.899 185.729 263.899 184.44C263.899 183.151 263.474 181.957 262.756 180.999ZM252.441 174.122H257.025C257.443 174.122 257.835 174.235 258.171 174.431C258.856 174.825 259.317 175.567 259.317 176.415C259.317 177.263 258.856 178.004 258.171 178.399C257.835 178.595 257.443 178.707 257.025 178.707H252.441V174.122ZM259.317 187.679C258.958 187.807 258.574 187.876 258.171 187.876H252.441V180.999H258.171C258.574 180.999 258.958 181.068 259.317 181.195C260.654 181.669 261.61 182.942 261.61 184.437C261.61 185.932 260.654 187.208 259.317 187.679Z" fill="#F7931A"/>
</g>
</g>
<g filter="url(#filter8_ddi_3958_4773)">
<rect x="230" y="132" width="52" height="52" rx="26" transform="rotate(-90 230 132)" fill="white"/>
<rect x="229.25" y="132.75" width="53.5" height="53.5" rx="26.75" transform="rotate(-90 229.25 132.75)" stroke="#CAC2FF" stroke-width="1.5"/>
<path d="M263.873 103C263.536 102.998 263.201 103.062 262.888 103.187L260.029 99.6191C260.264 99.2807 260.416 98.8917 260.473 98.4837C260.53 98.0756 260.49 97.6599 260.356 97.2702C260.222 96.8805 259.999 96.5278 259.704 96.2405C259.408 95.9532 259.049 95.7395 258.656 95.6166C258.263 95.4937 257.846 95.4651 257.44 95.5331C257.034 95.601 256.649 95.7637 256.317 96.0079C255.985 96.2521 255.716 96.571 255.53 96.9387C255.344 97.3065 255.248 97.7128 255.248 98.1248C255.248 98.2168 255.253 98.3088 255.262 98.4004L250.906 100.215C250.643 99.8935 250.308 99.6385 249.928 99.4713C249.548 99.3041 249.133 99.2294 248.719 99.2535C248.304 99.2776 247.901 99.3998 247.543 99.6099C247.185 99.82 246.881 100.112 246.658 100.462C246.435 100.812 246.298 101.211 246.258 101.624C246.218 102.037 246.278 102.454 246.43 102.84C246.583 103.227 246.826 103.571 247.138 103.845C247.449 104.12 247.822 104.316 248.224 104.418L248.398 108.766C248 108.902 247.641 109.131 247.351 109.434C247.06 109.738 246.847 110.106 246.728 110.509C246.609 110.912 246.589 111.337 246.669 111.749C246.749 112.162 246.926 112.549 247.187 112.878C247.447 113.208 247.783 113.47 248.165 113.643C248.548 113.816 248.967 113.894 249.386 113.872C249.805 113.849 250.213 113.727 250.575 113.514C250.938 113.301 251.243 113.005 251.467 112.649L255.998 113.919C256.004 114.341 256.113 114.755 256.313 115.127C256.514 115.498 256.801 115.816 257.151 116.053C257.501 116.29 257.902 116.439 258.322 116.487C258.741 116.535 259.166 116.482 259.561 116.331C259.955 116.18 260.307 115.936 260.587 115.62C260.867 115.305 261.067 114.926 261.169 114.516C261.272 114.106 261.274 113.678 261.176 113.267C261.077 112.857 260.881 112.476 260.604 112.157L263.155 108.149C263.516 108.252 263.895 108.276 264.266 108.22C264.637 108.164 264.992 108.029 265.307 107.824C265.621 107.619 265.888 107.349 266.089 107.032C266.291 106.715 266.422 106.359 266.474 105.987C266.525 105.616 266.497 105.237 266.39 104.877C266.283 104.517 266.1 104.184 265.854 103.901C265.607 103.618 265.303 103.391 264.961 103.236C264.62 103.08 264.249 103 263.873 103ZM250.672 103.784L254.659 106.094L250.772 109.114C250.508 108.925 250.211 108.787 249.897 108.706L249.723 104.358C250.077 104.236 250.4 104.04 250.672 103.784ZM258.02 100.75C258.308 100.734 258.591 100.671 258.858 100.562L261.717 104.13C261.535 104.392 261.402 104.685 261.325 104.995L256.959 105.203L258.02 100.75ZM251.694 110.298L255.623 107.243L257.117 111.727C256.833 111.928 256.591 112.182 256.405 112.477L251.873 111.206C251.868 110.895 251.807 110.588 251.694 110.298ZM258.623 111.25H258.54L257.023 106.7L261.396 106.492C261.507 106.802 261.675 107.088 261.891 107.336L259.34 111.344C259.107 111.279 258.865 111.248 258.623 111.25ZM255.841 99.7841C256.042 100.03 256.286 100.237 256.561 100.397L255.501 104.846L251.426 102.486C251.474 102.286 251.498 102.081 251.498 101.875C251.498 101.783 251.493 101.691 251.484 101.599L255.841 99.7841Z" fill="url(#paint1_linear_3958_4773)"/>
</g>
<g filter="url(#filter9_ddi_3958_4773)">
<rect x="230" y="57" width="52" height="52" rx="26" transform="rotate(-90 230 57)" fill="white"/>
<rect x="229.25" y="57.75" width="53.5" height="53.5" rx="26.75" transform="rotate(-90 229.25 57.75)" stroke="#CAC2FF" stroke-width="1.5"/>
<g clip-path="url(#clip2_3958_4773)">
<path d="M262.756 30.999C262.427 30.5635 262.043 30.1789 261.61 29.8529C261.304 29.6237 260.973 29.4225 260.621 29.2569C260.759 29.0838 260.884 28.8978 260.993 28.7068C261.385 28.0319 261.607 27.25 261.607 26.4146C261.607 25.5793 261.383 24.7974 260.993 24.1225C260.591 23.4272 260.01 22.8465 259.315 22.4441C258.958 22.2378 258.574 22.0799 258.169 21.9729V19.5381H255.877V21.8303H254.73V19.5381H252.438V21.8303H249V24.1225H250.146V37.8756H249V40.1677H252.438V42.4599H254.73V40.1677H255.877V42.4599H258.169V40.1677C258.561 40.1677 258.946 40.1295 259.315 40.0531C260.16 39.8825 260.94 39.5234 261.607 39.0242C262.04 38.6982 262.427 38.3111 262.753 37.8781C263.471 36.9205 263.899 35.7285 263.899 34.4398C263.899 33.1511 263.474 31.9566 262.756 30.999ZM252.441 24.1225H257.025C257.443 24.1225 257.835 24.2345 258.171 24.4306C258.856 24.8254 259.317 25.5665 259.317 26.4146C259.317 27.2627 258.856 28.0039 258.171 28.3987C257.835 28.5948 257.443 28.7068 257.025 28.7068H252.441V24.1225ZM259.317 37.6795C258.958 37.8068 258.574 37.8756 258.171 37.8756H252.441V30.999H258.171C258.574 30.999 258.958 31.0678 259.317 31.1951C260.654 31.6688 261.61 32.9423 261.61 34.4373C261.61 35.9323 260.654 37.2083 259.317 37.6795Z" fill="#F7931A"/>
</g>
</g>
<g filter="url(#filter10_ddi_3958_4773)">
<rect x="305" y="169.5" width="52" height="52" rx="26" transform="rotate(-90 305 169.5)" fill="white"/>
<rect x="304.25" y="170.25" width="53.5" height="53.5" rx="26.75" transform="rotate(-90 304.25 170.25)" stroke="#CAC2FF" stroke-width="1.5"/>
<path d="M339.053 142.762L328.553 154.012C328.442 154.13 328.295 154.21 328.135 154.238C327.974 154.266 327.809 154.241 327.664 154.167C327.519 154.093 327.403 153.973 327.331 153.827C327.26 153.681 327.238 153.515 327.27 153.355L328.644 146.481L323.241 144.452C323.125 144.409 323.022 144.337 322.94 144.244C322.858 144.151 322.801 144.039 322.773 143.918C322.745 143.797 322.748 143.672 322.78 143.552C322.813 143.433 322.875 143.323 322.96 143.233L333.46 131.983C333.571 131.865 333.718 131.785 333.878 131.757C334.039 131.729 334.204 131.754 334.349 131.828C334.494 131.902 334.61 132.022 334.682 132.168C334.753 132.314 334.774 132.48 334.743 132.64L333.365 139.522L338.768 141.548C338.883 141.591 338.986 141.663 339.067 141.756C339.148 141.848 339.205 141.96 339.233 142.08C339.26 142.2 339.258 142.325 339.226 142.444C339.194 142.563 339.133 142.672 339.049 142.762H339.053Z" fill="#F7931A"/>
</g>
<g filter="url(#filter11_ddi_3958_4773)">
<rect x="305" y="94.5" width="52" height="52" rx="26" transform="rotate(-90 305 94.5)" fill="white"/>
<rect x="304.25" y="95.25" width="53.5" height="53.5" rx="26.75" transform="rotate(-90 304.25 95.25)" stroke="#CAC2FF" stroke-width="1.5"/>
<path d="M340.805 75.1963V77.2903L336.805 79.2903V75.3403L338.527 76.3343L338.861 76.1683L340.805 75.1963Z" fill="#008E8E" stroke="white" stroke-width="0.336191" stroke-linecap="round" stroke-linejoin="round"/>
<path d="M342.527 70.3838V74.3338L340.805 75.1958L338.861 76.1678L338.527 76.3338V72.3838L342.527 70.3838Z" fill="#008E8E" stroke="white" stroke-width="0.336191" stroke-linecap="round" stroke-linejoin="round"/>
<path d="M337.364 71.7118L333.498 69.4798L329.62 67.2398C329.566 67.0318 329.506 66.8258 329.438 66.6198C329.08 65.5038 328.534 64.4198 327.802 63.3638C327.618 63.0998 327.428 62.8478 327.23 62.6098C326.498 61.7198 325.674 61.0118 324.758 60.4838C324.41 60.2818 324.074 60.1238 323.752 60.0058C322.85 59.6738 322.048 59.6638 321.346 59.9758L321.1 60.0998C320.096 60.6718 319.594 61.7818 319.594 63.4278C319.594 65.0738 320.096 66.7618 321.1 68.4938C322.104 70.2258 323.324 71.5058 324.758 72.3338C325.92 73.0038 326.934 73.2158 327.802 72.9678C327.952 72.9258 328.096 72.8698 328.23 72.8078L328.38 72.7318C328.946 72.4158 329.358 71.9038 329.62 71.1898L330.476 71.6838L333.364 73.3517V77.3017L336.806 79.2897V75.3398L338.528 76.3338V72.3838L337.364 71.7118ZM326.288 68.2098C326.208 68.3338 326.104 68.4318 325.974 68.5058C325.636 68.6978 325.232 68.6558 324.758 68.3838C324.286 68.1098 323.88 67.6837 323.542 67.1017C323.206 66.5197 323.038 65.9578 323.038 65.4138C323.038 64.8698 323.206 64.5038 323.542 64.3118C323.698 64.2238 323.868 64.1838 324.054 64.1938C324.268 64.2058 324.502 64.2878 324.758 64.4338C325.232 64.7058 325.636 65.1338 325.974 65.7158C326.312 66.2958 326.48 66.8597 326.48 67.4017C326.48 67.7377 326.416 68.0078 326.288 68.2098Z" fill="#99FFFF" stroke="white" stroke-width="0.336191" stroke-linecap="round" stroke-linejoin="round"/>
<path d="M342.525 70.3833L338.525 72.3833L337.361 71.7113L333.495 69.4793L329.617 67.2393L333.617 65.2393L342.525 70.3833Z" fill="#008E8E" stroke="white" stroke-width="0.336191" stroke-linecap="round" stroke-linejoin="round"/>
<path d="M326.481 67.4019C326.481 67.7379 326.417 68.0079 326.289 68.2099C326.209 68.3339 326.105 68.4319 325.975 68.5059C325.637 68.6979 325.233 68.6559 324.759 68.3839C324.287 68.1099 323.881 67.6839 323.543 67.1019C323.207 66.5199 323.039 65.9579 323.039 65.4139C323.039 64.8699 323.207 64.5039 323.543 64.3119C323.699 64.2239 323.869 64.1839 324.055 64.1939C324.269 64.2059 324.503 64.2879 324.759 64.4339C325.233 64.7059 325.637 65.1339 325.975 65.7159C326.313 66.2959 326.481 66.8599 326.481 67.4019Z" fill="#008E8E" stroke="white" stroke-width="0.336191" stroke-linecap="round" stroke-linejoin="round"/>
<path d="M333.622 65.2396L329.622 67.2396C329.568 67.0316 329.508 66.8256 329.44 66.6196C329.082 65.5036 328.536 64.4196 327.804 63.3636C327.62 63.0996 327.43 62.8476 327.232 62.6096C326.5 61.7196 325.676 61.0116 324.76 60.4836C324.412 60.2816 324.076 60.1236 323.754 60.0056C322.852 59.6736 322.05 59.6636 321.348 59.9756L325.102 58.0996C326.106 57.5276 327.326 57.6556 328.76 58.4836C329.922 59.1536 330.936 60.1136 331.804 61.3636C332.672 62.6136 333.278 63.9056 333.622 65.2396Z" fill="#008E8E" stroke="white" stroke-width="0.336191" stroke-linecap="round" stroke-linejoin="round"/>
<path d="M330.475 71.6835L328.379 72.7315C328.945 72.4155 329.357 71.9035 329.619 71.1895L330.475 71.6835Z" fill="#008E8E" stroke="white" stroke-width="0.336191" stroke-linecap="round" stroke-linejoin="round"/>
</g>
<defs>
<filter id="filter0_ddi_3958_4773" x="0.978571" y="113.479" width="65.0857" height="65.0857" filterUnits="userSpaceOnUse" color-interpolation-filters="sRGB">
<feFlood flood-opacity="0" result="BackgroundImageFix"/>
<feColorMatrix in="SourceAlpha" type="matrix" values="0 0 0 0 0 0 0 0 0 0 0 0 0 0 0 0 0 0 127 0" result="hardAlpha"/>
<feMorphology radius="1.26071" operator="erode" in="SourceAlpha" result="effect1_dropShadow_3958_4773"/>
<feOffset dx="2.52143" dy="2.52143"/>
<feGaussianBlur stdDeviation="3.15179"/>
<feComposite in2="hardAlpha" operator="out"/>
<feColorMatrix type="matrix" values="0 0 0 0 0.466667 0 0 0 0 0.384314 0 0 0 0 1 0 0 0 0.1 0"/>
<feBlend mode="normal" in2="BackgroundImageFix" result="effect1_dropShadow_3958_4773"/>
<feColorMatrix in="SourceAlpha" type="matrix" values="0 0 0 0 0 0 0 0 0 0 0 0 0 0 0 0 0 0 127 0" result="hardAlpha"/>
<feMorphology radius="0.630357" operator="erode" in="SourceAlpha" result="effect2_dropShadow_3958_4773"/>
<feOffset dx="1.26071" dy="1.26071"/>
<feGaussianBlur stdDeviation="0.630357"/>
<feComposite in2="hardAlpha" operator="out"/>
<feColorMatrix type="matrix" values="0 0 0 0 0.466667 0 0 0 0 0.384314 0 0 0 0 1 0 0 0 0.1 0"/>
<feBlend mode="normal" in2="effect1_dropShadow_3958_4773" result="effect2_dropShadow_3958_4773"/>
<feBlend mode="normal" in="SourceGraphic" in2="effect2_dropShadow_3958_4773" result="shape"/>
<feColorMatrix in="SourceAlpha" type="matrix" values="0 0 0 0 0 0 0 0 0 0 0 0 0 0 0 0 0 0 127 0" result="hardAlpha"/>
<feOffset dy="-0.630357"/>
<feGaussianBlur stdDeviation="1.26071"/>
<feComposite in2="hardAlpha" operator="arithmetic" k2="-1" k3="1"/>
<feColorMatrix type="matrix" values="0 0 0 0 0.466667 0 0 0 0 0.384314 0 0 0 0 1 0 0 0 0.05 0"/>
<feBlend mode="normal" in2="shape" result="effect3_innerShadow_3958_4773"/>
</filter>
<filter id="filter1_ddi_3958_4773" x="0.978571" y="38.4786" width="65.0857" height="65.0857" filterUnits="userSpaceOnUse" color-interpolation-filters="sRGB">
<feFlood flood-opacity="0" result="BackgroundImageFix"/>
<feColorMatrix in="SourceAlpha" type="matrix" values="0 0 0 0 0 0 0 0 0 0 0 0 0 0 0 0 0 0 127 0" result="hardAlpha"/>
<feMorphology radius="1.26071" operator="erode" in="SourceAlpha" result="effect1_dropShadow_3958_4773"/>
<feOffset dx="2.52143" dy="2.52143"/>
<feGaussianBlur stdDeviation="3.15179"/>
<feComposite in2="hardAlpha" operator="out"/>
<feColorMatrix type="matrix" values="0 0 0 0 0.466667 0 0 0 0 0.384314 0 0 0 0 1 0 0 0 0.1 0"/>
<feBlend mode="normal" in2="BackgroundImageFix" result="effect1_dropShadow_3958_4773"/>
<feColorMatrix in="SourceAlpha" type="matrix" values="0 0 0 0 0 0 0 0 0 0 0 0 0 0 0 0 0 0 127 0" result="hardAlpha"/>
<feMorphology radius="0.630357" operator="erode" in="SourceAlpha" result="effect2_dropShadow_3958_4773"/>
<feOffset dx="1.26071" dy="1.26071"/>
<feGaussianBlur stdDeviation="0.630357"/>
<feComposite in2="hardAlpha" operator="out"/>
<feColorMatrix type="matrix" values="0 0 0 0 0.466667 0 0 0 0 0.384314 0 0 0 0 1 0 0 0 0.1 0"/>
<feBlend mode="normal" in2="effect1_dropShadow_3958_4773" result="effect2_dropShadow_3958_4773"/>
<feBlend mode="normal" in="SourceGraphic" in2="effect2_dropShadow_3958_4773" result="shape"/>
<feColorMatrix in="SourceAlpha" type="matrix" values="0 0 0 0 0 0 0 0 0 0 0 0 0 0 0 0 0 0 127 0" result="hardAlpha"/>
<feOffset dy="-0.630357"/>
<feGaussianBlur stdDeviation="1.26071"/>
<feComposite in2="hardAlpha" operator="arithmetic" k2="-1" k3="1"/>
<feColorMatrix type="matrix" values="0 0 0 0 0.466667 0 0 0 0 0.384314 0 0 0 0 1 0 0 0 0.05 0"/>
<feBlend mode="normal" in2="shape" result="effect3_innerShadow_3958_4773"/>
</filter>
<filter id="filter2_ddi_3958_4773" x="75.9786" y="150.979" width="65.0857" height="65.0857" filterUnits="userSpaceOnUse" color-interpolation-filters="sRGB">
<feFlood flood-opacity="0" result="BackgroundImageFix"/>
<feColorMatrix in="SourceAlpha" type="matrix" values="0 0 0 0 0 0 0 0 0 0 0 0 0 0 0 0 0 0 127 0" result="hardAlpha"/>
<feMorphology radius="1.26071" operator="erode" in="SourceAlpha" result="effect1_dropShadow_3958_4773"/>
<feOffset dx="2.52143" dy="2.52143"/>
<feGaussianBlur stdDeviation="3.15179"/>
<feComposite in2="hardAlpha" operator="out"/>
<feColorMatrix type="matrix" values="0 0 0 0 0.466667 0 0 0 0 0.384314 0 0 0 0 1 0 0 0 0.1 0"/>
<feBlend mode="normal" in2="BackgroundImageFix" result="effect1_dropShadow_3958_4773"/>
<feColorMatrix in="SourceAlpha" type="matrix" values="0 0 0 0 0 0 0 0 0 0 0 0 0 0 0 0 0 0 127 0" result="hardAlpha"/>
<feMorphology radius="0.630357" operator="erode" in="SourceAlpha" result="effect2_dropShadow_3958_4773"/>
<feOffset dx="1.26071" dy="1.26071"/>
<feGaussianBlur stdDeviation="0.630357"/>
<feComposite in2="hardAlpha" operator="out"/>
<feColorMatrix type="matrix" values="0 0 0 0 0.466667 0 0 0 0 0.384314 0 0 0 0 1 0 0 0 0.1 0"/>
<feBlend mode="normal" in2="effect1_dropShadow_3958_4773" result="effect2_dropShadow_3958_4773"/>
<feBlend mode="normal" in="SourceGraphic" in2="effect2_dropShadow_3958_4773" result="shape"/>
<feColorMatrix in="SourceAlpha" type="matrix" values="0 0 0 0 0 0 0 0 0 0 0 0 0 0 0 0 0 0 127 0" result="hardAlpha"/>
<feOffset dy="-0.630357"/>
<feGaussianBlur stdDeviation="1.26071"/>
<feComposite in2="hardAlpha" operator="arithmetic" k2="-1" k3="1"/>
<feColorMatrix type="matrix" values="0 0 0 0 0.466667 0 0 0 0 0.384314 0 0 0 0 1 0 0 0 0.05 0"/>
<feBlend mode="normal" in2="shape" result="effect3_innerShadow_3958_4773"/>
</filter>
<filter id="filter3_ddi_3958_4773" x="75.9786" y="75.9786" width="65.0857" height="65.0857" filterUnits="userSpaceOnUse" color-interpolation-filters="sRGB">
<feFlood flood-opacity="0" result="BackgroundImageFix"/>
<feColorMatrix in="SourceAlpha" type="matrix" values="0 0 0 0 0 0 0 0 0 0 0 0 0 0 0 0 0 0 127 0" result="hardAlpha"/>
<feMorphology radius="1.26071" operator="erode" in="SourceAlpha" result="effect1_dropShadow_3958_4773"/>
<feOffset dx="2.52143" dy="2.52143"/>
<feGaussianBlur stdDeviation="3.15179"/>
<feComposite in2="hardAlpha" operator="out"/>
<feColorMatrix type="matrix" values="0 0 0 0 0.466667 0 0 0 0 0.384314 0 0 0 0 1 0 0 0 0.1 0"/>
<feBlend mode="normal" in2="BackgroundImageFix" result="effect1_dropShadow_3958_4773"/>
<feColorMatrix in="SourceAlpha" type="matrix" values="0 0 0 0 0 0 0 0 0 0 0 0 0 0 0 0 0 0 127 0" result="hardAlpha"/>
<feMorphology radius="0.630357" operator="erode" in="SourceAlpha" result="effect2_dropShadow_3958_4773"/>
<feOffset dx="1.26071" dy="1.26071"/>
<feGaussianBlur stdDeviation="0.630357"/>
<feComposite in2="hardAlpha" operator="out"/>
<feColorMatrix type="matrix" values="0 0 0 0 0.466667 0 0 0 0 0.384314 0 0 0 0 1 0 0 0 0.1 0"/>
<feBlend mode="normal" in2="effect1_dropShadow_3958_4773" result="effect2_dropShadow_3958_4773"/>
<feBlend mode="normal" in="SourceGraphic" in2="effect2_dropShadow_3958_4773" result="shape"/>
<feColorMatrix in="SourceAlpha" type="matrix" values="0 0 0 0 0 0 0 0 0 0 0 0 0 0 0 0 0 0 127 0" result="hardAlpha"/>
<feOffset dy="-0.630357"/>
<feGaussianBlur stdDeviation="1.26071"/>
<feComposite in2="hardAlpha" operator="arithmetic" k2="-1" k3="1"/>
<feColorMatrix type="matrix" values="0 0 0 0 0.466667 0 0 0 0 0.384314 0 0 0 0 1 0 0 0 0.05 0"/>
<feBlend mode="normal" in2="shape" result="effect3_innerShadow_3958_4773"/>
</filter>
<filter id="filter4_ddi_3958_4773" x="75.9786" y="0.978571" width="65.0857" height="65.0857" filterUnits="userSpaceOnUse" color-interpolation-filters="sRGB">
<feFlood flood-opacity="0" result="BackgroundImageFix"/>
<feColorMatrix in="SourceAlpha" type="matrix" values="0 0 0 0 0 0 0 0 0 0 0 0 0 0 0 0 0 0 127 0" result="hardAlpha"/>
<feMorphology radius="1.26071" operator="erode" in="SourceAlpha" result="effect1_dropShadow_3958_4773"/>
<feOffset dx="2.52143" dy="2.52143"/>
<feGaussianBlur stdDeviation="3.15179"/>
<feComposite in2="hardAlpha" operator="out"/>
<feColorMatrix type="matrix" values="0 0 0 0 0.466667 0 0 0 0 0.384314 0 0 0 0 1 0 0 0 0.1 0"/>
<feBlend mode="normal" in2="BackgroundImageFix" result="effect1_dropShadow_3958_4773"/>
<feColorMatrix in="SourceAlpha" type="matrix" values="0 0 0 0 0 0 0 0 0 0 0 0 0 0 0 0 0 0 127 0" result="hardAlpha"/>
<feMorphology radius="0.630357" operator="erode" in="SourceAlpha" result="effect2_dropShadow_3958_4773"/>
<feOffset dx="1.26071" dy="1.26071"/>
<feGaussianBlur stdDeviation="0.630357"/>
<feComposite in2="hardAlpha" operator="out"/>
<feColorMatrix type="matrix" values="0 0 0 0 0.466667 0 0 0 0 0.384314 0 0 0 0 1 0 0 0 0.1 0"/>
<feBlend mode="normal" in2="effect1_dropShadow_3958_4773" result="effect2_dropShadow_3958_4773"/>
<feBlend mode="normal" in="SourceGraphic" in2="effect2_dropShadow_3958_4773" result="shape"/>
<feColorMatrix in="SourceAlpha" type="matrix" values="0 0 0 0 0 0 0 0 0 0 0 0 0 0 0 0 0 0 127 0" result="hardAlpha"/>
<feOffset dy="-0.630357"/>
<feGaussianBlur stdDeviation="1.26071"/>
<feComposite in2="hardAlpha" operator="arithmetic" k2="-1" k3="1"/>
<feColorMatrix type="matrix" values="0 0 0 0 0.466667 0 0 0 0 0.384314 0 0 0 0 1 0 0 0 0.05 0"/>
<feBlend mode="normal" in2="shape" result="effect3_innerShadow_3958_4773"/>
</filter>
<filter id="filter5_ddi_3958_4773" x="150.979" y="113.479" width="65.0857" height="65.0857" filterUnits="userSpaceOnUse" color-interpolation-filters="sRGB">
<feFlood flood-opacity="0" result="BackgroundImageFix"/>
<feColorMatrix in="SourceAlpha" type="matrix" values="0 0 0 0 0 0 0 0 0 0 0 0 0 0 0 0 0 0 127 0" result="hardAlpha"/>
<feMorphology radius="1.26071" operator="erode" in="SourceAlpha" result="effect1_dropShadow_3958_4773"/>
<feOffset dx="2.52143" dy="2.52143"/>
<feGaussianBlur stdDeviation="3.15179"/>
<feComposite in2="hardAlpha" operator="out"/>
<feColorMatrix type="matrix" values="0 0 0 0 0.466667 0 0 0 0 0.384314 0 0 0 0 1 0 0 0 0.1 0"/>
<feBlend mode="normal" in2="BackgroundImageFix" result="effect1_dropShadow_3958_4773"/>
<feColorMatrix in="SourceAlpha" type="matrix" values="0 0 0 0 0 0 0 0 0 0 0 0 0 0 0 0 0 0 127 0" result="hardAlpha"/>
<feMorphology radius="0.630357" operator="erode" in="SourceAlpha" result="effect2_dropShadow_3958_4773"/>
<feOffset dx="1.26071" dy="1.26071"/>
<feGaussianBlur stdDeviation="0.630357"/>
<feComposite in2="hardAlpha" operator="out"/>
<feColorMatrix type="matrix" values="0 0 0 0 0.466667 0 0 0 0 0.384314 0 0 0 0 1 0 0 0 0.1 0"/>
<feBlend mode="normal" in2="effect1_dropShadow_3958_4773" result="effect2_dropShadow_3958_4773"/>
<feBlend mode="normal" in="SourceGraphic" in2="effect2_dropShadow_3958_4773" result="shape"/>
<feColorMatrix in="SourceAlpha" type="matrix" values="0 0 0 0 0 0 0 0 0 0 0 0 0 0 0 0 0 0 127 0" result="hardAlpha"/>
<feOffset dy="-0.630357"/>
<feGaussianBlur stdDeviation="1.26071"/>
<feComposite in2="hardAlpha" operator="arithmetic" k2="-1" k3="1"/>
<feColorMatrix type="matrix" values="0 0 0 0 0.466667 0 0 0 0 0.384314 0 0 0 0 1 0 0 0 0.05 0"/>
<feBlend mode="normal" in2="shape" result="effect3_innerShadow_3958_4773"/>
</filter>
<filter id="filter6_ddi_3958_4773" x="150.979" y="38.4786" width="65.0857" height="65.0857" filterUnits="userSpaceOnUse" color-interpolation-filters="sRGB">
<feFlood flood-opacity="0" result="BackgroundImageFix"/>
<feColorMatrix in="SourceAlpha" type="matrix" values="0 0 0 0 0 0 0 0 0 0 0 0 0 0 0 0 0 0 127 0" result="hardAlpha"/>
<feMorphology radius="1.26071" operator="erode" in="SourceAlpha" result="effect1_dropShadow_3958_4773"/>
<feOffset dx="2.52143" dy="2.52143"/>
<feGaussianBlur stdDeviation="3.15179"/>
<feComposite in2="hardAlpha" operator="out"/>
<feColorMatrix type="matrix" values="0 0 0 0 0.466667 0 0 0 0 0.384314 0 0 0 0 1 0 0 0 0.1 0"/>
<feBlend mode="normal" in2="BackgroundImageFix" result="effect1_dropShadow_3958_4773"/>
<feColorMatrix in="SourceAlpha" type="matrix" values="0 0 0 0 0 0 0 0 0 0 0 0 0 0 0 0 0 0 127 0" result="hardAlpha"/>
<feMorphology radius="0.630357" operator="erode" in="SourceAlpha" result="effect2_dropShadow_3958_4773"/>
<feOffset dx="1.26071" dy="1.26071"/>
<feGaussianBlur stdDeviation="0.630357"/>
<feComposite in2="hardAlpha" operator="out"/>
<feColorMatrix type="matrix" values="0 0 0 0 0.466667 0 0 0 0 0.384314 0 0 0 0 1 0 0 0 0.1 0"/>
<feBlend mode="normal" in2="effect1_dropShadow_3958_4773" result="effect2_dropShadow_3958_4773"/>
<feBlend mode="normal" in="SourceGraphic" in2="effect2_dropShadow_3958_4773" result="shape"/>
<feColorMatrix in="SourceAlpha" type="matrix" values="0 0 0 0 0 0 0 0 0 0 0 0 0 0 0 0 0 0 127 0" result="hardAlpha"/>
<feOffset dy="-0.630357"/>
<feGaussianBlur stdDeviation="1.26071"/>
<feComposite in2="hardAlpha" operator="arithmetic" k2="-1" k3="1"/>
<feColorMatrix type="matrix" values="0 0 0 0 0.466667 0 0 0 0 0.384314 0 0 0 0 1 0 0 0 0.05 0"/>
<feBlend mode="normal" in2="shape" result="effect3_innerShadow_3958_4773"/>
</filter>
<filter id="filter7_ddi_3958_4773" x="225.979" y="150.979" width="65.0857" height="65.0857" filterUnits="userSpaceOnUse" color-interpolation-filters="sRGB">
<feFlood flood-opacity="0" result="BackgroundImageFix"/>
<feColorMatrix in="SourceAlpha" type="matrix" values="0 0 0 0 0 0 0 0 0 0 0 0 0 0 0 0 0 0 127 0" result="hardAlpha"/>
<feMorphology radius="1.26071" operator="erode" in="SourceAlpha" result="effect1_dropShadow_3958_4773"/>
<feOffset dx="2.52143" dy="2.52143"/>
<feGaussianBlur stdDeviation="3.15179"/>
<feComposite in2="hardAlpha" operator="out"/>
<feColorMatrix type="matrix" values="0 0 0 0 0.466667 0 0 0 0 0.384314 0 0 0 0 1 0 0 0 0.1 0"/>
<feBlend mode="normal" in2="BackgroundImageFix" result="effect1_dropShadow_3958_4773"/>
<feColorMatrix in="SourceAlpha" type="matrix" values="0 0 0 0 0 0 0 0 0 0 0 0 0 0 0 0 0 0 127 0" result="hardAlpha"/>
<feMorphology radius="0.630357" operator="erode" in="SourceAlpha" result="effect2_dropShadow_3958_4773"/>
<feOffset dx="1.26071" dy="1.26071"/>
<feGaussianBlur stdDeviation="0.630357"/>
<feComposite in2="hardAlpha" operator="out"/>
<feColorMatrix type="matrix" values="0 0 0 0 0.466667 0 0 0 0 0.384314 0 0 0 0 1 0 0 0 0.1 0"/>
<feBlend mode="normal" in2="effect1_dropShadow_3958_4773" result="effect2_dropShadow_3958_4773"/>
<feBlend mode="normal" in="SourceGraphic" in2="effect2_dropShadow_3958_4773" result="shape"/>
<feColorMatrix in="SourceAlpha" type="matrix" values="0 0 0 0 0 0 0 0 0 0 0 0 0 0 0 0 0 0 127 0" result="hardAlpha"/>
<feOffset dy="-0.630357"/>
<feGaussianBlur stdDeviation="1.26071"/>
<feComposite in2="hardAlpha" operator="arithmetic" k2="-1" k3="1"/>
<feColorMatrix type="matrix" values="0 0 0 0 0.466667 0 0 0 0 0.384314 0 0 0 0 1 0 0 0 0.05 0"/>
<feBlend mode="normal" in2="shape" result="effect3_innerShadow_3958_4773"/>
</filter>
<filter id="filter8_ddi_3958_4773" x="225.979" y="75.9786" width="65.0857" height="65.0857" filterUnits="userSpaceOnUse" color-interpolation-filters="sRGB">
<feFlood flood-opacity="0" result="BackgroundImageFix"/>
<feColorMatrix in="SourceAlpha" type="matrix" values="0 0 0 0 0 0 0 0 0 0 0 0 0 0 0 0 0 0 127 0" result="hardAlpha"/>
<feMorphology radius="1.26071" operator="erode" in="SourceAlpha" result="effect1_dropShadow_3958_4773"/>
<feOffset dx="2.52143" dy="2.52143"/>
<feGaussianBlur stdDeviation="3.15179"/>
<feComposite in2="hardAlpha" operator="out"/>
<feColorMatrix type="matrix" values="0 0 0 0 0.466667 0 0 0 0 0.384314 0 0 0 0 1 0 0 0 0.1 0"/>
<feBlend mode="normal" in2="BackgroundImageFix" result="effect1_dropShadow_3958_4773"/>
<feColorMatrix in="SourceAlpha" type="matrix" values="0 0 0 0 0 0 0 0 0 0 0 0 0 0 0 0 0 0 127 0" result="hardAlpha"/>
<feMorphology radius="0.630357" operator="erode" in="SourceAlpha" result="effect2_dropShadow_3958_4773"/>
<feOffset dx="1.26071" dy="1.26071"/>
<feGaussianBlur stdDeviation="0.630357"/>
<feComposite in2="hardAlpha" operator="out"/>
<feColorMatrix type="matrix" values="0 0 0 0 0.466667 0 0 0 0 0.384314 0 0 0 0 1 0 0 0 0.1 0"/>
<feBlend mode="normal" in2="effect1_dropShadow_3958_4773" result="effect2_dropShadow_3958_4773"/>
<feBlend mode="normal" in="SourceGraphic" in2="effect2_dropShadow_3958_4773" result="shape"/>
<feColorMatrix in="SourceAlpha" type="matrix" values="0 0 0 0 0 0 0 0 0 0 0 0 0 0 0 0 0 0 127 0" result="hardAlpha"/>
<feOffset dy="-0.630357"/>
<feGaussianBlur stdDeviation="1.26071"/>
<feComposite in2="hardAlpha" operator="arithmetic" k2="-1" k3="1"/>
<feColorMatrix type="matrix" values="0 0 0 0 0.466667 0 0 0 0 0.384314 0 0 0 0 1 0 0 0 0.05 0"/>
<feBlend mode="normal" in2="shape" result="effect3_innerShadow_3958_4773"/>
</filter>
<filter id="filter9_ddi_3958_4773" x="225.979" y="0.978571" width="65.0857" height="65.0857" filterUnits="userSpaceOnUse" color-interpolation-filters="sRGB">
<feFlood flood-opacity="0" result="BackgroundImageFix"/>
<feColorMatrix in="SourceAlpha" type="matrix" values="0 0 0 0 0 0 0 0 0 0 0 0 0 0 0 0 0 0 127 0" result="hardAlpha"/>
<feMorphology radius="1.26071" operator="erode" in="SourceAlpha" result="effect1_dropShadow_3958_4773"/>
<feOffset dx="2.52143" dy="2.52143"/>
<feGaussianBlur stdDeviation="3.15179"/>
<feComposite in2="hardAlpha" operator="out"/>
<feColorMatrix type="matrix" values="0 0 0 0 0.466667 0 0 0 0 0.384314 0 0 0 0 1 0 0 0 0.1 0"/>
<feBlend mode="normal" in2="BackgroundImageFix" result="effect1_dropShadow_3958_4773"/>
<feColorMatrix in="SourceAlpha" type="matrix" values="0 0 0 0 0 0 0 0 0 0 0 0 0 0 0 0 0 0 127 0" result="hardAlpha"/>
<feMorphology radius="0.630357" operator="erode" in="SourceAlpha" result="effect2_dropShadow_3958_4773"/>
<feOffset dx="1.26071" dy="1.26071"/>
<feGaussianBlur stdDeviation="0.630357"/>
<feComposite in2="hardAlpha" operator="out"/>
<feColorMatrix type="matrix" values="0 0 0 0 0.466667 0 0 0 0 0.384314 0 0 0 0 1 0 0 0 0.1 0"/>
<feBlend mode="normal" in2="effect1_dropShadow_3958_4773" result="effect2_dropShadow_3958_4773"/>
<feBlend mode="normal" in="SourceGraphic" in2="effect2_dropShadow_3958_4773" result="shape"/>
<feColorMatrix in="SourceAlpha" type="matrix" values="0 0 0 0 0 0 0 0 0 0 0 0 0 0 0 0 0 0 127 0" result="hardAlpha"/>
<feOffset dy="-0.630357"/>
<feGaussianBlur stdDeviation="1.26071"/>
<feComposite in2="hardAlpha" operator="arithmetic" k2="-1" k3="1"/>
<feColorMatrix type="matrix" values="0 0 0 0 0.466667 0 0 0 0 0.384314 0 0 0 0 1 0 0 0 0.05 0"/>
<feBlend mode="normal" in2="shape" result="effect3_innerShadow_3958_4773"/>
</filter>
<filter id="filter10_ddi_3958_4773" x="300.979" y="113.479" width="65.0857" height="65.0857" filterUnits="userSpaceOnUse" color-interpolation-filters="sRGB">
<feFlood flood-opacity="0" result="BackgroundImageFix"/>
<feColorMatrix in="SourceAlpha" type="matrix" values="0 0 0 0 0 0 0 0 0 0 0 0 0 0 0 0 0 0 127 0" result="hardAlpha"/>
<feMorphology radius="1.26071" operator="erode" in="SourceAlpha" result="effect1_dropShadow_3958_4773"/>
<feOffset dx="2.52143" dy="2.52143"/>
<feGaussianBlur stdDeviation="3.15179"/>
<feComposite in2="hardAlpha" operator="out"/>
<feColorMatrix type="matrix" values="0 0 0 0 0.466667 0 0 0 0 0.384314 0 0 0 0 1 0 0 0 0.1 0"/>
<feBlend mode="normal" in2="BackgroundImageFix" result="effect1_dropShadow_3958_4773"/>
<feColorMatrix in="SourceAlpha" type="matrix" values="0 0 0 0 0 0 0 0 0 0 0 0 0 0 0 0 0 0 127 0" result="hardAlpha"/>
<feMorphology radius="0.630357" operator="erode" in="SourceAlpha" result="effect2_dropShadow_3958_4773"/>
<feOffset dx="1.26071" dy="1.26071"/>
<feGaussianBlur stdDeviation="0.630357"/>
<feComposite in2="hardAlpha" operator="out"/>
<feColorMatrix type="matrix" values="0 0 0 0 0.466667 0 0 0 0 0.384314 0 0 0 0 1 0 0 0 0.1 0"/>
<feBlend mode="normal" in2="effect1_dropShadow_3958_4773" result="effect2_dropShadow_3958_4773"/>
<feBlend mode="normal" in="SourceGraphic" in2="effect2_dropShadow_3958_4773" result="shape"/>
<feColorMatrix in="SourceAlpha" type="matrix" values="0 0 0 0 0 0 0 0 0 0 0 0 0 0 0 0 0 0 127 0" result="hardAlpha"/>
<feOffset dy="-0.630357"/>
<feGaussianBlur stdDeviation="1.26071"/>
<feComposite in2="hardAlpha" operator="arithmetic" k2="-1" k3="1"/>
<feColorMatrix type="matrix" values="0 0 0 0 0.466667 0 0 0 0 0.384314 0 0 0 0 1 0 0 0 0.05 0"/>
<feBlend mode="normal" in2="shape" result="effect3_innerShadow_3958_4773"/>
</filter>
<filter id="filter11_ddi_3958_4773" x="300.979" y="38.4786" width="65.0857" height="65.0857" filterUnits="userSpaceOnUse" color-interpolation-filters="sRGB">
<feFlood flood-opacity="0" result="BackgroundImageFix"/>
<feColorMatrix in="SourceAlpha" type="matrix" values="0 0 0 0 0 0 0 0 0 0 0 0 0 0 0 0 0 0 127 0" result="hardAlpha"/>
<feMorphology radius="1.26071" operator="erode" in="SourceAlpha" result="effect1_dropShadow_3958_4773"/>
<feOffset dx="2.52143" dy="2.52143"/>
<feGaussianBlur stdDeviation="3.15179"/>
<feComposite in2="hardAlpha" operator="out"/>
<feColorMatrix type="matrix" values="0 0 0 0 0.466667 0 0 0 0 0.384314 0 0 0 0 1 0 0 0 0.1 0"/>
<feBlend mode="normal" in2="BackgroundImageFix" result="effect1_dropShadow_3958_4773"/>
<feColorMatrix in="SourceAlpha" type="matrix" values="0 0 0 0 0 0 0 0 0 0 0 0 0 0 0 0 0 0 127 0" result="hardAlpha"/>
<feMorphology radius="0.630357" operator="erode" in="SourceAlpha" result="effect2_dropShadow_3958_4773"/>
<feOffset dx="1.26071" dy="1.26071"/>
<feGaussianBlur stdDeviation="0.630357"/>
<feComposite in2="hardAlpha" operator="out"/>
<feColorMatrix type="matrix" values="0 0 0 0 0.466667 0 0 0 0 0.384314 0 0 0 0 1 0 0 0 0.1 0"/>
<feBlend mode="normal" in2="effect1_dropShadow_3958_4773" result="effect2_dropShadow_3958_4773"/>
<feBlend mode="normal" in="SourceGraphic" in2="effect2_dropShadow_3958_4773" result="shape"/>
<feColorMatrix in="SourceAlpha" type="matrix" values="0 0 0 0 0 0 0 0 0 0 0 0 0 0 0 0 0 0 127 0" result="hardAlpha"/>
<feOffset dy="-0.630357"/>
<feGaussianBlur stdDeviation="1.26071"/>
<feComposite in2="hardAlpha" operator="arithmetic" k2="-1" k3="1"/>
<feColorMatrix type="matrix" values="0 0 0 0 0.466667 0 0 0 0 0.384314 0 0 0 0 1 0 0 0 0.05 0"/>
<feBlend mode="normal" in2="shape" result="effect3_innerShadow_3958_4773"/>
</filter>
<linearGradient id="paint0_linear_3958_4773" x1="106.372" y1="20.4971" x2="106.372" y2="41.5043" gradientUnits="userSpaceOnUse">
<stop stop-color="#7C86D6"/>
<stop offset="1" stop-color="#CD1599"/>
</linearGradient>
<linearGradient id="paint1_linear_3958_4773" x1="256.372" y1="95.4971" x2="256.372" y2="116.504" gradientUnits="userSpaceOnUse">
<stop stop-color="#7C86D6"/>
<stop offset="1" stop-color="#CD1599"/>
</linearGradient>
<clipPath id="clip0_3958_4773">
<rect width="14.8992" height="24" fill="white" transform="translate(99 94)"/>
</clipPath>
<clipPath id="clip1_3958_4773">
<rect width="14.8992" height="24" fill="white" transform="translate(249 169)"/>
</clipPath>
<clipPath id="clip2_3958_4773">
<rect width="14.8992" height="24" fill="white" transform="translate(249 19)"/>
</clipPath>
</defs>
</svg>
