<svg width="580" height="340" viewBox="0 0 580 340" fill="none" xmlns="http://www.w3.org/2000/svg">
<g filter="url(#filter0_ddi_2316_15201)">
<rect x="6" y="266" width="80" height="80" rx="40" transform="rotate(-90 6 266)" fill="white"/>
<rect x="5" y="267" width="82" height="82" rx="41" transform="rotate(-90 5 267)" stroke="#CAC2FF" stroke-width="2"/>
<path d="M59.4152 225.604L41.9152 244.354C41.7297 244.551 41.4849 244.684 41.2178 244.73C40.9506 244.777 40.6755 244.735 40.434 244.612C40.1925 244.488 39.9977 244.29 39.8791 244.046C39.7604 243.802 39.7243 243.526 39.7761 243.26L42.0667 231.802L33.0621 228.421C32.8687 228.348 32.6962 228.229 32.5601 228.074C32.424 227.919 32.3284 227.732 32.282 227.531C32.2356 227.33 32.2397 227.12 32.294 226.921C32.3484 226.722 32.4512 226.539 32.5933 226.389L50.0933 207.639C50.2788 207.442 50.5236 207.309 50.7907 207.263C51.0579 207.216 51.333 207.258 51.5745 207.381C51.816 207.505 52.0108 207.703 52.1294 207.947C52.2481 208.191 52.2842 208.467 52.2324 208.733L49.9355 220.204L58.9402 223.58C59.1321 223.653 59.3032 223.772 59.4383 223.927C59.5733 224.081 59.6682 224.267 59.7146 224.467C59.7609 224.667 59.7573 224.875 59.7039 225.073C59.6506 225.272 59.5493 225.454 59.4089 225.604H59.4152Z" fill="#F7931A"/>
</g>
<g filter="url(#filter1_ddi_2316_15201)">
<rect x="6" y="146" width="80" height="80" rx="40" transform="rotate(-90 6 146)" fill="white"/>
<rect x="5" y="147" width="82" height="82" rx="41" transform="rotate(-90 5 147)" stroke="#CAC2FF" stroke-width="2"/>
<path d="M62.3423 117.158V120.648L55.6758 123.982V117.398L58.5457 119.055L59.1025 118.778L62.3423 117.158Z" fill="#FF9589" stroke="white" stroke-width="0.533333" stroke-linecap="round" stroke-linejoin="round"/>
<path d="M65.2135 109.138V115.721L62.3435 117.158L59.1036 118.778L58.5469 119.054V112.471L65.2135 109.138Z" fill="#FF9589" stroke="white" stroke-width="0.533333" stroke-linecap="round" stroke-linejoin="round"/>
<path d="M56.605 111.352L50.1616 107.632L43.6982 103.899C43.6082 103.552 43.5083 103.209 43.3949 102.865C42.7983 101.005 41.8883 99.1986 40.6683 97.4386C40.3616 96.9986 40.0449 96.5786 39.7149 96.182C38.4949 94.6986 37.1216 93.5186 35.595 92.6386C35.015 92.302 34.455 92.0386 33.9183 91.842C32.415 91.2886 31.0783 91.272 29.9083 91.792L29.4983 91.9986C27.825 92.952 26.9883 94.802 26.9883 97.5453C26.9883 100.289 27.825 103.102 29.4983 105.989C31.1716 108.875 33.205 111.009 35.595 112.389C37.5316 113.505 39.2216 113.859 40.6683 113.445C40.9183 113.375 41.1582 113.282 41.3816 113.179L41.6316 113.052C42.5749 112.525 43.2616 111.672 43.6982 110.482L45.1249 111.305L49.9383 114.085V120.668L55.675 123.982V117.399L58.5449 119.055V112.472L56.605 111.352ZM38.1449 105.515C38.0116 105.722 37.8382 105.885 37.6216 106.009C37.0582 106.329 36.385 106.259 35.595 105.805C34.8083 105.349 34.1316 104.639 33.5683 103.669C33.0083 102.699 32.7283 101.762 32.7283 100.855C32.7283 99.9486 33.0083 99.3386 33.5683 99.0186C33.8283 98.872 34.1116 98.8053 34.4216 98.822C34.7783 98.842 35.1683 98.9786 35.595 99.222C36.385 99.6753 37.0582 100.389 37.6216 101.359C38.1849 102.325 38.4649 103.265 38.4649 104.169C38.4649 104.729 38.3583 105.179 38.1449 105.515Z" fill="#FFD1CC" stroke="white" stroke-width="0.533333" stroke-linecap="round" stroke-linejoin="round"/>
<path d="M65.2125 109.138L58.5459 112.471L56.606 111.351L50.1626 107.631L43.6992 103.898L50.3659 100.564L65.2125 109.138Z" fill="#FF9589" stroke="white" stroke-width="0.533333" stroke-linecap="round" stroke-linejoin="round"/>
<path d="M38.4671 104.169C38.4671 104.729 38.3605 105.179 38.1471 105.515C38.0138 105.722 37.8404 105.885 37.6238 106.009C37.0604 106.329 36.3872 106.259 35.5972 105.805C34.8105 105.349 34.1338 104.639 33.5705 103.669C33.0105 102.699 32.7305 101.762 32.7305 100.855C32.7305 99.9485 33.0105 99.3385 33.5705 99.0185C33.8305 98.8718 34.1138 98.8052 34.4238 98.8218C34.7805 98.8418 35.1705 98.9785 35.5972 99.2218C36.3872 99.6752 37.0604 100.389 37.6238 101.359C38.1871 102.325 38.4671 103.265 38.4671 104.169Z" fill="#FF9589" stroke="white" stroke-width="0.533333" stroke-linecap="round" stroke-linejoin="round"/>
<path d="M50.3668 100.564L43.7001 103.898C43.6101 103.551 43.5102 103.208 43.3968 102.864C42.8002 101.004 41.8902 99.1977 40.6702 97.4377C40.3635 96.9977 40.0468 96.5777 39.7168 96.181C38.4968 94.6977 37.1235 93.5177 35.5969 92.6377C35.0169 92.301 34.4569 92.0377 33.9202 91.841C32.4169 91.2877 31.0802 91.271 29.9102 91.791L36.1668 88.6643C37.8402 87.711 39.8735 87.9243 42.2635 89.3043C44.2002 90.421 45.8902 92.021 47.3369 94.1043C48.7835 96.1877 49.7935 98.341 50.3668 100.564Z" fill="#FF9589" stroke="white" stroke-width="0.533333" stroke-linecap="round" stroke-linejoin="round"/>
<path d="M45.1261 111.305L41.6328 113.051C42.5761 112.525 43.2628 111.671 43.6995 110.481L45.1261 111.305Z" fill="#FF9589" stroke="white" stroke-width="0.533333" stroke-linecap="round" stroke-linejoin="round"/>
</g>
<g filter="url(#filter2_ddi_2316_15201)">
<rect x="126" y="326" width="80" height="80" rx="40" transform="rotate(-90 126 326)" fill="white"/>
<rect x="125" y="327" width="82" height="82" rx="41" transform="rotate(-90 125 327)" stroke="#CAC2FF" stroke-width="2"/>
<path d="M182.342 297.158V300.648L175.676 303.982V297.398L178.546 299.055L179.102 298.778L182.342 297.158Z" fill="#008E8E" stroke="white" stroke-width="0.533333" stroke-linecap="round" stroke-linejoin="round"/>
<path d="M185.214 289.138V295.721L182.344 297.158L179.104 298.778L178.547 299.054V292.471L185.214 289.138Z" fill="#008E8E" stroke="white" stroke-width="0.533333" stroke-linecap="round" stroke-linejoin="round"/>
<path d="M176.605 291.352L170.162 287.632L163.698 283.899C163.608 283.552 163.508 283.209 163.395 282.865C162.798 281.005 161.888 279.199 160.668 277.439C160.362 276.999 160.045 276.579 159.715 276.182C158.495 274.699 157.122 273.519 155.595 272.639C155.015 272.302 154.455 272.039 153.918 271.842C152.415 271.289 151.078 271.272 149.908 271.792L149.498 271.999C147.825 272.952 146.988 274.802 146.988 277.545C146.988 280.289 147.825 283.102 149.498 285.989C151.172 288.875 153.205 291.009 155.595 292.389C157.532 293.505 159.222 293.859 160.668 293.445C160.918 293.375 161.158 293.282 161.382 293.179L161.632 293.052C162.575 292.525 163.262 291.672 163.698 290.482L165.125 291.305L169.938 294.085V300.668L175.675 303.982V297.399L178.545 299.055V292.472L176.605 291.352ZM158.145 285.515C158.012 285.722 157.838 285.885 157.622 286.009C157.058 286.329 156.385 286.259 155.595 285.805C154.808 285.349 154.132 284.639 153.568 283.669C153.008 282.699 152.728 281.762 152.728 280.855C152.728 279.949 153.008 279.339 153.568 279.019C153.828 278.872 154.112 278.805 154.422 278.822C154.778 278.842 155.168 278.979 155.595 279.222C156.385 279.675 157.058 280.389 157.622 281.359C158.185 282.325 158.465 283.265 158.465 284.169C158.465 284.729 158.358 285.179 158.145 285.515Z" fill="#99FFFF" stroke="white" stroke-width="0.533333" stroke-linecap="round" stroke-linejoin="round"/>
<path d="M185.213 289.138L178.546 292.471L176.606 291.351L170.163 287.631L163.699 283.898L170.366 280.564L185.213 289.138Z" fill="#008E8E" stroke="white" stroke-width="0.533333" stroke-linecap="round" stroke-linejoin="round"/>
<path d="M158.467 284.169C158.467 284.729 158.36 285.179 158.147 285.515C158.014 285.722 157.84 285.885 157.624 286.009C157.06 286.329 156.387 286.259 155.597 285.805C154.811 285.349 154.134 284.639 153.57 283.669C153.01 282.699 152.73 281.762 152.73 280.855C152.73 279.949 153.01 279.339 153.57 279.019C153.83 278.872 154.114 278.805 154.424 278.822C154.781 278.842 155.171 278.979 155.597 279.222C156.387 279.675 157.06 280.389 157.624 281.359C158.187 282.325 158.467 283.265 158.467 284.169Z" fill="#008E8E" stroke="white" stroke-width="0.533333" stroke-linecap="round" stroke-linejoin="round"/>
<path d="M170.367 280.564L163.7 283.898C163.61 283.551 163.51 283.208 163.397 282.864C162.8 281.004 161.89 279.198 160.67 277.438C160.364 276.998 160.047 276.578 159.717 276.181C158.497 274.698 157.124 273.518 155.597 272.638C155.017 272.301 154.457 272.038 153.92 271.841C152.417 271.288 151.08 271.271 149.91 271.791L156.167 268.664C157.84 267.711 159.874 267.924 162.264 269.304C164.2 270.421 165.89 272.021 167.337 274.104C168.784 276.188 169.793 278.341 170.367 280.564Z" fill="#008E8E" stroke="white" stroke-width="0.533333" stroke-linecap="round" stroke-linejoin="round"/>
<path d="M165.126 291.305L161.633 293.051C162.576 292.525 163.263 291.671 163.699 290.481L165.126 291.305Z" fill="#008E8E" stroke="white" stroke-width="0.533333" stroke-linecap="round" stroke-linejoin="round"/>
</g>
<g filter="url(#filter3_ddi_2316_15201)">
<rect x="126" y="206" width="80" height="80" rx="40" transform="rotate(-90 126 206)" fill="white"/>
<rect x="125" y="207" width="82" height="82" rx="41" transform="rotate(-90 125 207)" stroke="#CAC2FF" stroke-width="2"/>
<g clip-path="url(#clip0_2316_15201)">
<path d="M176.926 166C176.379 165.274 175.738 164.633 175.016 164.09C174.507 163.708 173.955 163.372 173.369 163.097C173.598 162.808 173.806 162.498 173.989 162.18C174.642 161.055 175.012 159.752 175.012 158.359C175.012 156.967 174.638 155.664 173.989 154.539C173.318 153.38 172.35 152.412 171.191 151.742C170.597 151.398 169.956 151.135 169.281 150.956V146.898H165.461V150.719H163.551V146.898H159.73V150.719H154V154.539H155.91V177.461H154V181.281H159.73V185.102H163.551V181.281H165.461V185.102H169.281V181.281C169.935 181.281 170.576 181.218 171.191 181.09C172.601 180.806 173.9 180.207 175.012 179.375C175.733 178.832 176.379 178.187 176.922 177.465C178.119 175.869 178.832 173.883 178.832 171.735C178.832 169.587 178.123 167.596 176.926 166ZM159.735 154.539H167.375C168.071 154.539 168.725 154.726 169.285 155.053C170.427 155.711 171.196 156.946 171.196 158.359C171.196 159.773 170.427 161.008 169.285 161.666C168.725 161.993 168.071 162.18 167.375 162.18H159.735V154.539ZM171.196 177.134C170.597 177.346 169.956 177.461 169.285 177.461H159.735V166H169.285C169.956 166 170.597 166.115 171.196 166.327C173.424 167.116 175.016 169.239 175.016 171.73C175.016 174.222 173.424 176.349 171.196 177.134Z" fill="#F7931A"/>
</g>
</g>
<g filter="url(#filter4_ddi_2316_15201)">
<rect x="126" y="86" width="80" height="80" rx="40" transform="rotate(-90 126 86)" fill="white"/>
<rect x="125" y="87" width="82" height="82" rx="41" transform="rotate(-90 125 87)" stroke="#CAC2FF" stroke-width="2"/>
<path d="M179.124 40.9996C178.562 40.9966 178.004 41.1027 177.482 41.3121L172.718 35.3652C173.11 34.8012 173.363 34.1529 173.458 33.4728C173.552 32.7927 173.486 32.0999 173.263 31.4504C173.04 30.8009 172.667 30.213 172.175 29.7342C171.683 29.2554 171.085 28.8992 170.43 28.6943C169.774 28.4895 169.08 28.4418 168.403 28.5551C167.725 28.6684 167.084 28.9395 166.531 29.3465C165.978 29.7535 165.529 30.2849 165.219 30.8979C164.91 31.5108 164.749 32.188 164.749 32.8746C164.749 33.028 164.757 33.1814 164.773 33.334L157.512 36.359C157.075 35.8225 156.516 35.3975 155.883 35.1188C155.249 34.8401 154.558 34.7157 153.867 34.7559C153.176 34.7961 152.505 34.9996 151.908 35.3498C151.31 35.7001 150.805 36.1869 150.433 36.7705C150.06 37.354 149.832 38.0176 149.766 38.7066C149.7 39.3957 149.799 40.0905 150.053 40.7341C150.308 41.3777 150.712 41.9516 151.232 42.4087C151.752 42.8658 152.372 43.1931 153.043 43.3637L153.332 50.6105C152.67 50.8367 152.071 51.2185 151.587 51.7238C151.103 52.2292 150.747 52.8433 150.549 53.5147C150.351 54.1861 150.318 54.8952 150.451 55.5824C150.584 56.2695 150.88 56.9147 151.314 57.4638C151.748 58.0129 152.307 58.4499 152.945 58.738C153.583 59.0261 154.281 59.157 154.98 59.1196C155.678 59.0822 156.358 58.8777 156.962 58.5232C157.565 58.1688 158.075 57.6747 158.448 57.0824L165.999 59.198C166.01 59.9017 166.19 60.5925 166.525 61.2116C166.859 61.8308 167.338 62.3601 167.921 62.7547C168.504 63.1493 169.173 63.3975 169.872 63.4782C170.571 63.559 171.279 63.4699 171.937 63.2185C172.594 62.9671 173.181 62.5608 173.648 62.0342C174.115 61.5075 174.448 60.876 174.618 60.1933C174.789 59.5105 174.792 58.7967 174.628 58.1123C174.464 57.428 174.138 56.7933 173.676 56.2621L177.928 49.5824C178.529 49.7537 179.161 49.794 179.779 49.7004C180.398 49.6069 180.989 49.3818 181.514 49.0402C182.038 48.6987 182.483 48.2487 182.818 47.7206C183.154 47.1925 183.372 46.5985 183.459 45.9788C183.545 45.3592 183.497 44.7282 183.319 44.1284C183.141 43.5287 182.836 42.9741 182.425 42.5022C182.015 42.0303 181.507 41.6519 180.938 41.3927C180.369 41.1335 179.75 40.9995 179.124 40.9996ZM157.123 42.3059L163.768 46.1559L157.29 51.1902C156.85 50.8753 156.355 50.6449 155.831 50.5105L155.542 43.2637C156.131 43.0607 156.67 42.7341 157.123 42.3059ZM169.37 37.2496C169.849 37.2234 170.321 37.1178 170.767 36.9371L175.531 42.884C175.227 43.3203 175.005 43.8085 174.878 44.3246L167.601 44.6715L169.37 37.2496ZM158.826 53.1637L165.374 48.0715L167.865 55.5449C167.391 55.8793 166.987 56.3041 166.678 56.7949L159.124 54.6762C159.115 54.1583 159.014 53.6462 158.826 53.1637ZM170.374 54.7496H170.235L167.707 47.1668L174.996 46.8199C175.181 47.3363 175.46 47.8134 175.821 48.2262L171.57 54.9059C171.18 54.7989 170.778 54.7463 170.374 54.7496ZM165.737 35.6402C166.073 36.0496 166.479 36.3957 166.937 36.6621L165.171 44.0762L158.379 40.1434C158.459 39.8097 158.499 39.4677 158.499 39.1246C158.5 38.9712 158.492 38.8178 158.476 38.6652L165.737 35.6402Z" fill="url(#paint0_linear_2316_15201)"/>
</g>
<g filter="url(#filter5_ddi_2316_15201)">
<rect x="246" y="266" width="80" height="80" rx="40" transform="rotate(-90 246 266)" fill="white"/>
<rect x="245" y="267" width="82" height="82" rx="41" transform="rotate(-90 245 267)" stroke="#CAC2FF" stroke-width="2"/>
<path d="M299.415 225.604L281.915 244.354C281.73 244.551 281.485 244.684 281.218 244.73C280.951 244.777 280.675 244.735 280.434 244.612C280.192 244.488 279.998 244.29 279.879 244.046C279.76 243.802 279.724 243.526 279.776 243.26L282.067 231.802L273.062 228.421C272.869 228.348 272.696 228.229 272.56 228.074C272.424 227.919 272.328 227.732 272.282 227.531C272.236 227.33 272.24 227.12 272.294 226.921C272.348 226.722 272.451 226.539 272.593 226.389L290.093 207.639C290.279 207.442 290.524 207.309 290.791 207.263C291.058 207.216 291.333 207.258 291.575 207.381C291.816 207.505 292.011 207.703 292.129 207.947C292.248 208.191 292.284 208.467 292.232 208.733L289.935 220.204L298.94 223.58C299.132 223.653 299.303 223.772 299.438 223.927C299.573 224.081 299.668 224.267 299.715 224.467C299.761 224.667 299.757 224.875 299.704 225.073C299.651 225.272 299.549 225.454 299.409 225.604H299.415Z" fill="#F7931A"/>
</g>
<g filter="url(#filter6_ddi_2316_15201)">
<rect x="246" y="146" width="80" height="80" rx="40" transform="rotate(-90 246 146)" fill="white"/>
<rect x="245" y="147" width="82" height="82" rx="41" transform="rotate(-90 245 147)" stroke="#CAC2FF" stroke-width="2"/>
<path d="M302.342 117.158V120.648L295.676 123.982V117.398L298.546 119.055L299.102 118.778L302.342 117.158Z" fill="#FF9589" stroke="white" stroke-width="0.533333" stroke-linecap="round" stroke-linejoin="round"/>
<path d="M305.214 109.138V115.721L302.344 117.158L299.104 118.778L298.547 119.054V112.471L305.214 109.138Z" fill="#FF9589" stroke="white" stroke-width="0.533333" stroke-linecap="round" stroke-linejoin="round"/>
<path d="M296.605 111.352L290.162 107.632L283.698 103.899C283.608 103.552 283.508 103.209 283.395 102.865C282.798 101.005 281.888 99.1986 280.668 97.4386C280.362 96.9986 280.045 96.5786 279.715 96.182C278.495 94.6986 277.122 93.5186 275.595 92.6386C275.015 92.302 274.455 92.0386 273.918 91.842C272.415 91.2886 271.078 91.272 269.908 91.792L269.498 91.9986C267.825 92.952 266.988 94.802 266.988 97.5453C266.988 100.289 267.825 103.102 269.498 105.989C271.172 108.875 273.205 111.009 275.595 112.389C277.532 113.505 279.222 113.859 280.668 113.445C280.918 113.375 281.158 113.282 281.382 113.179L281.632 113.052C282.575 112.525 283.262 111.672 283.698 110.482L285.125 111.305L289.938 114.085V120.668L295.675 123.982V117.399L298.545 119.055V112.472L296.605 111.352ZM278.145 105.515C278.012 105.722 277.838 105.885 277.622 106.009C277.058 106.329 276.385 106.259 275.595 105.805C274.808 105.349 274.132 104.639 273.568 103.669C273.008 102.699 272.728 101.762 272.728 100.855C272.728 99.9486 273.008 99.3386 273.568 99.0186C273.828 98.872 274.112 98.8053 274.422 98.822C274.778 98.842 275.168 98.9786 275.595 99.222C276.385 99.6753 277.058 100.389 277.622 101.359C278.185 102.325 278.465 103.265 278.465 104.169C278.465 104.729 278.358 105.179 278.145 105.515Z" fill="#FFD1CC" stroke="white" stroke-width="0.533333" stroke-linecap="round" stroke-linejoin="round"/>
<path d="M305.213 109.138L298.546 112.471L296.606 111.351L290.163 107.631L283.699 103.898L290.366 100.564L305.213 109.138Z" fill="#FF9589" stroke="white" stroke-width="0.533333" stroke-linecap="round" stroke-linejoin="round"/>
<path d="M278.467 104.169C278.467 104.729 278.36 105.179 278.147 105.515C278.014 105.722 277.84 105.885 277.624 106.009C277.06 106.329 276.387 106.259 275.597 105.805C274.811 105.349 274.134 104.639 273.57 103.669C273.01 102.699 272.73 101.762 272.73 100.855C272.73 99.9485 273.01 99.3385 273.57 99.0185C273.83 98.8718 274.114 98.8052 274.424 98.8218C274.781 98.8418 275.171 98.9785 275.597 99.2218C276.387 99.6752 277.06 100.389 277.624 101.359C278.187 102.325 278.467 103.265 278.467 104.169Z" fill="#FF9589" stroke="white" stroke-width="0.533333" stroke-linecap="round" stroke-linejoin="round"/>
<path d="M290.367 100.564L283.7 103.898C283.61 103.551 283.51 103.208 283.397 102.864C282.8 101.004 281.89 99.1977 280.67 97.4377C280.364 96.9977 280.047 96.5777 279.717 96.181C278.497 94.6977 277.124 93.5177 275.597 92.6377C275.017 92.301 274.457 92.0377 273.92 91.841C272.417 91.2877 271.08 91.271 269.91 91.791L276.167 88.6643C277.84 87.711 279.874 87.9243 282.264 89.3043C284.2 90.421 285.89 92.021 287.337 94.1043C288.784 96.1877 289.793 98.341 290.367 100.564Z" fill="#FF9589" stroke="white" stroke-width="0.533333" stroke-linecap="round" stroke-linejoin="round"/>
<path d="M285.126 111.305L281.633 113.051C282.576 112.525 283.263 111.671 283.699 110.481L285.126 111.305Z" fill="#FF9589" stroke="white" stroke-width="0.533333" stroke-linecap="round" stroke-linejoin="round"/>
</g>
<g filter="url(#filter7_ddi_2316_15201)">
<rect x="366" y="326" width="80" height="80" rx="40" transform="rotate(-90 366 326)" fill="white"/>
<rect x="365" y="327" width="82" height="82" rx="41" transform="rotate(-90 365 327)" stroke="#CAC2FF" stroke-width="2"/>
<g clip-path="url(#clip1_2316_15201)">
<path d="M416.926 286C416.379 285.274 415.738 284.633 415.016 284.09C414.507 283.708 413.955 283.372 413.369 283.097C413.598 282.808 413.806 282.498 413.989 282.18C414.642 281.055 415.012 279.752 415.012 278.359C415.012 276.967 414.638 275.664 413.989 274.539C413.318 273.38 412.35 272.412 411.191 271.742C410.597 271.398 409.956 271.135 409.281 270.956V266.898H405.461V270.719H403.551V266.898H399.73V270.719H394V274.539H395.91V297.461H394V301.281H399.73V305.102H403.551V301.281H405.461V305.102H409.281V301.281C409.935 301.281 410.576 301.218 411.191 301.09C412.601 300.806 413.9 300.207 415.012 299.375C415.733 298.832 416.379 298.187 416.922 297.465C418.119 295.869 418.832 293.883 418.832 291.735C418.832 289.587 418.123 287.596 416.926 286ZM399.735 274.539H407.375C408.071 274.539 408.725 274.726 409.285 275.053C410.427 275.711 411.196 276.946 411.196 278.359C411.196 279.773 410.427 281.008 409.285 281.666C408.725 281.993 408.071 282.18 407.375 282.18H399.735V274.539ZM411.196 297.134C410.597 297.346 409.956 297.461 409.285 297.461H399.735V286H409.285C409.956 286 410.597 286.115 411.196 286.327C413.424 287.116 415.016 289.239 415.016 291.73C415.016 294.222 413.424 296.349 411.196 297.134Z" fill="#F7931A"/>
</g>
</g>
<g filter="url(#filter8_ddi_2316_15201)">
<rect x="366" y="206" width="80" height="80" rx="40" transform="rotate(-90 366 206)" fill="white"/>
<rect x="365" y="207" width="82" height="82" rx="41" transform="rotate(-90 365 207)" stroke="#CAC2FF" stroke-width="2"/>
<path d="M419.124 161C418.562 160.997 418.004 161.103 417.482 161.312L412.718 155.365C413.11 154.801 413.363 154.153 413.458 153.473C413.552 152.793 413.486 152.1 413.263 151.45C413.04 150.801 412.667 150.213 412.175 149.734C411.683 149.255 411.085 148.899 410.43 148.694C409.774 148.489 409.08 148.442 408.403 148.555C407.725 148.668 407.084 148.939 406.531 149.346C405.978 149.753 405.529 150.285 405.219 150.898C404.91 151.511 404.749 152.188 404.749 152.875C404.749 153.028 404.757 153.181 404.773 153.334L397.512 156.359C397.075 155.822 396.516 155.397 395.883 155.119C395.249 154.84 394.558 154.716 393.867 154.756C393.176 154.796 392.505 155 391.908 155.35C391.31 155.7 390.805 156.187 390.433 156.77C390.06 157.354 389.832 158.018 389.766 158.707C389.7 159.396 389.799 160.091 390.053 160.734C390.308 161.378 390.712 161.952 391.232 162.409C391.752 162.866 392.372 163.193 393.043 163.364L393.332 170.611C392.67 170.837 392.071 171.218 391.587 171.724C391.103 172.229 390.747 172.843 390.549 173.515C390.351 174.186 390.318 174.895 390.451 175.582C390.584 176.27 390.88 176.915 391.314 177.464C391.748 178.013 392.307 178.45 392.945 178.738C393.583 179.026 394.281 179.157 394.98 179.12C395.678 179.082 396.358 178.878 396.962 178.523C397.565 178.169 398.075 177.675 398.448 177.082L405.999 179.198C406.01 179.902 406.19 180.592 406.525 181.212C406.859 181.831 407.338 182.36 407.921 182.755C408.504 183.149 409.173 183.398 409.872 183.478C410.571 183.559 411.279 183.47 411.937 183.218C412.594 182.967 413.181 182.561 413.648 182.034C414.115 181.508 414.448 180.876 414.618 180.193C414.789 179.511 414.792 178.797 414.628 178.112C414.464 177.428 414.138 176.793 413.676 176.262L417.928 169.582C418.529 169.754 419.161 169.794 419.779 169.7C420.398 169.607 420.989 169.382 421.514 169.04C422.038 168.699 422.483 168.249 422.818 167.721C423.154 167.192 423.372 166.599 423.459 165.979C423.545 165.359 423.497 164.728 423.319 164.128C423.141 163.529 422.836 162.974 422.425 162.502C422.015 162.03 421.507 161.652 420.938 161.393C420.369 161.134 419.75 160.999 419.124 161ZM397.123 162.306L403.768 166.156L397.29 171.19C396.85 170.875 396.355 170.645 395.831 170.511L395.542 163.264C396.131 163.061 396.67 162.734 397.123 162.306ZM409.37 157.25C409.849 157.223 410.321 157.118 410.767 156.937L415.531 162.884C415.227 163.32 415.005 163.809 414.878 164.325L407.601 164.671L409.37 157.25ZM398.826 173.164L405.374 168.071L407.865 175.545C407.391 175.879 406.987 176.304 406.678 176.795L399.124 174.676C399.115 174.158 399.014 173.646 398.826 173.164ZM410.374 174.75H410.235L407.707 167.167L414.996 166.82C415.181 167.336 415.46 167.813 415.821 168.226L411.57 174.906C411.18 174.799 410.778 174.746 410.374 174.75ZM405.737 155.64C406.073 156.05 406.479 156.396 406.937 156.662L405.171 164.076L398.379 160.143C398.459 159.81 398.499 159.468 398.499 159.125C398.5 158.971 398.492 158.818 398.476 158.665L405.737 155.64Z" fill="url(#paint1_linear_2316_15201)"/>
</g>
<g filter="url(#filter9_ddi_2316_15201)">
<rect x="366" y="86" width="80" height="80" rx="40" transform="rotate(-90 366 86)" fill="white"/>
<rect x="365" y="87" width="82" height="82" rx="41" transform="rotate(-90 365 87)" stroke="#CAC2FF" stroke-width="2"/>
<g clip-path="url(#clip2_2316_15201)">
<path d="M416.926 46C416.379 45.2741 415.738 44.6332 415.016 44.0898C414.507 43.7078 413.955 43.3725 413.369 43.0965C413.598 42.8079 413.806 42.498 413.989 42.1797C414.642 41.0548 415.012 39.7517 415.012 38.3594C415.012 36.9671 414.638 35.6639 413.989 34.5391C413.318 33.3802 412.35 32.4124 411.191 31.7417C410.597 31.3979 409.956 31.1347 409.281 30.9565V26.8984H405.461V30.7187H403.551V26.8984H399.73V30.7187H394V34.5391H395.91V57.4609H394V61.2812H399.73V65.1015H403.551V61.2812H405.461V65.1015H409.281V61.2812C409.935 61.2812 410.576 61.2175 411.191 61.0902C412.601 60.8058 413.9 60.2073 415.012 59.3753C415.733 58.832 416.379 58.1868 416.922 57.4651C418.119 55.8691 418.832 53.8825 418.832 51.7347C418.832 49.5868 418.123 47.596 416.926 46ZM399.735 34.5391H407.375C408.071 34.5391 408.725 34.7258 409.285 35.0527C410.427 35.7106 411.196 36.9458 411.196 38.3594C411.196 39.7729 410.427 41.0081 409.285 41.666C408.725 41.9929 408.071 42.1797 407.375 42.1797H399.735V34.5391ZM411.196 57.1341C410.597 57.3463 409.956 57.4609 409.285 57.4609H399.735V46H409.285C409.956 46 410.597 46.1146 411.196 46.3268C413.424 47.1164 415.016 49.2387 415.016 51.7304C415.016 54.2221 413.424 56.3488 411.196 57.1341Z" fill="#F7931A"/>
</g>
</g>
<g filter="url(#filter10_ddi_2316_15201)">
<rect x="486" y="266" width="80" height="80" rx="40" transform="rotate(-90 486 266)" fill="white"/>
<rect x="485" y="267" width="82" height="82" rx="41" transform="rotate(-90 485 267)" stroke="#CAC2FF" stroke-width="2"/>
<path d="M539.415 225.604L521.915 244.354C521.73 244.551 521.485 244.684 521.218 244.73C520.951 244.777 520.675 244.735 520.434 244.612C520.192 244.488 519.998 244.29 519.879 244.046C519.76 243.802 519.724 243.526 519.776 243.26L522.067 231.802L513.062 228.421C512.869 228.348 512.696 228.229 512.56 228.074C512.424 227.919 512.328 227.732 512.282 227.531C512.236 227.33 512.24 227.12 512.294 226.921C512.348 226.722 512.451 226.539 512.593 226.389L530.093 207.639C530.279 207.442 530.524 207.309 530.791 207.263C531.058 207.216 531.333 207.258 531.575 207.381C531.816 207.505 532.011 207.703 532.129 207.947C532.248 208.191 532.284 208.467 532.232 208.733L529.935 220.204L538.94 223.58C539.132 223.653 539.303 223.772 539.438 223.927C539.573 224.081 539.668 224.267 539.715 224.467C539.761 224.667 539.757 224.875 539.704 225.073C539.651 225.272 539.549 225.454 539.409 225.604H539.415Z" fill="#F7931A"/>
</g>
<g filter="url(#filter11_ddi_2316_15201)">
<rect x="486" y="146" width="80" height="80" rx="40" transform="rotate(-90 486 146)" fill="white"/>
<rect x="485" y="147" width="82" height="82" rx="41" transform="rotate(-90 485 147)" stroke="#CAC2FF" stroke-width="2"/>
<path d="M536.124 113.335L535.938 113.015L530.77 110.045L530.044 109.629L524.972 106.717L523.685 105.978C523.096 103.741 522.063 101.555 520.584 99.4242C519.823 98.3298 518.997 97.3634 518.108 96.5346C517.266 95.7442 516.36 95.0754 515.404 94.525C514.703 94.1218 514.034 93.8178 513.394 93.613C511.986 93.1586 510.722 93.1778 509.608 93.6802L509.192 93.8882C507.49 94.8642 506.642 96.749 506.648 99.5426C506.655 102.336 507.516 105.203 509.224 108.138C510.936 111.075 513.013 113.242 515.452 114.643C517.327 115.722 519.02 116.08 520.53 115.719C522.037 115.357 523.096 114.346 523.701 112.685L524.213 112.979L527.148 118.013L530.066 116.339L533.73 121.751L538.834 117.984L536.124 113.335ZM519.141 109.434C518.975 109.635 518.773 109.802 518.543 109.933C517.692 110.419 516.658 110.314 515.439 109.613C514.22 108.912 513.183 107.827 512.325 106.362C511.471 104.893 511.042 103.459 511.039 102.064C511.036 100.666 511.458 99.7218 512.309 99.2354C512.613 99.0626 512.943 98.9602 513.298 98.9378C513.928 98.9026 514.636 99.1042 515.416 99.5522C516.636 100.253 517.672 101.338 518.524 102.803H518.527C518.597 102.925 518.661 103.043 518.725 103.162C518.728 103.165 518.728 103.168 518.732 103.171C519.452 104.512 519.813 105.821 519.816 107.104C519.82 108.122 519.592 108.899 519.141 109.434Z" fill="#99FFFF" stroke="white" stroke-width="0.8" stroke-linecap="round" stroke-linejoin="round"/>
<path d="M545.235 114.784L540.131 118.551L533.73 121.751L538.835 117.984L539.516 117.642L545.235 114.784Z" fill="#008E8E" stroke="white" stroke-width="0.8" stroke-linecap="round" stroke-linejoin="round"/>
<path d="M545.234 114.784L539.515 117.642L538.834 117.984L536.123 113.334L535.938 113.014L542.338 109.814L545.234 114.784Z" fill="#008E8E" stroke="white" stroke-width="0.8" stroke-linecap="round" stroke-linejoin="round"/>
<path d="M519.817 107.104C519.82 108.122 519.593 108.899 519.141 109.434C518.975 109.635 518.773 109.802 518.543 109.933C517.692 110.419 516.658 110.314 515.439 109.613C514.22 108.912 513.183 107.827 512.325 106.362C511.471 104.893 511.042 103.459 511.039 102.064C511.036 100.666 511.458 99.7215 512.309 99.2351C512.613 99.0623 512.943 98.9599 513.298 98.9375C513.929 98.9023 514.636 99.1039 515.417 99.5519C516.636 100.253 517.673 101.338 518.524 102.803H518.527C518.591 102.925 518.655 103.043 518.725 103.162C518.729 103.165 518.729 103.168 518.732 103.171C519.452 104.512 519.813 105.821 519.817 107.104Z" fill="#008E8E" stroke="white" stroke-width="0.8" stroke-linecap="round" stroke-linejoin="round"/>
<path d="M542.34 109.814L535.94 113.014L530.772 110.045L530.046 109.629L524.974 106.717L523.688 105.977L526.161 104.742L530.087 102.777L542.34 109.814Z" fill="#008E8E" stroke="white" stroke-width="0.8" stroke-linecap="round" stroke-linejoin="round"/>
<path d="M530.086 102.778L526.16 104.743L523.686 105.978C523.097 103.741 522.064 101.556 520.585 99.4245C519.824 98.3301 518.998 97.3637 518.109 96.5349C517.267 95.7445 516.361 95.0757 515.405 94.5253C514.704 94.1221 514.035 93.8181 513.395 93.6133C511.987 93.1589 510.723 93.1781 509.609 93.6805L515.593 90.6885C517.296 89.7125 519.366 89.9237 521.805 91.3253C523.779 92.4581 525.507 94.0933 526.985 96.2245C528.464 98.3557 529.497 100.541 530.086 102.778Z" fill="#008E8E" stroke="white" stroke-width="0.8" stroke-linecap="round" stroke-linejoin="round"/>
</g>
<defs>
<filter id="filter0_ddi_2316_15201" x="0" y="180" width="100" height="100" filterUnits="userSpaceOnUse" color-interpolation-filters="sRGB">
<feFlood flood-opacity="0" result="BackgroundImageFix"/>
<feColorMatrix in="SourceAlpha" type="matrix" values="0 0 0 0 0 0 0 0 0 0 0 0 0 0 0 0 0 0 127 0" result="hardAlpha"/>
<feMorphology radius="2" operator="erode" in="SourceAlpha" result="effect1_dropShadow_2316_15201"/>
<feOffset dx="4" dy="4"/>
<feGaussianBlur stdDeviation="5"/>
<feComposite in2="hardAlpha" operator="out"/>
<feColorMatrix type="matrix" values="0 0 0 0 0.466667 0 0 0 0 0.384314 0 0 0 0 1 0 0 0 0.1 0"/>
<feBlend mode="normal" in2="BackgroundImageFix" result="effect1_dropShadow_2316_15201"/>
<feColorMatrix in="SourceAlpha" type="matrix" values="0 0 0 0 0 0 0 0 0 0 0 0 0 0 0 0 0 0 127 0" result="hardAlpha"/>
<feMorphology radius="1" operator="erode" in="SourceAlpha" result="effect2_dropShadow_2316_15201"/>
<feOffset dx="2" dy="2"/>
<feGaussianBlur stdDeviation="1"/>
<feComposite in2="hardAlpha" operator="out"/>
<feColorMatrix type="matrix" values="0 0 0 0 0.466667 0 0 0 0 0.384314 0 0 0 0 1 0 0 0 0.1 0"/>
<feBlend mode="normal" in2="effect1_dropShadow_2316_15201" result="effect2_dropShadow_2316_15201"/>
<feBlend mode="normal" in="SourceGraphic" in2="effect2_dropShadow_2316_15201" result="shape"/>
<feColorMatrix in="SourceAlpha" type="matrix" values="0 0 0 0 0 0 0 0 0 0 0 0 0 0 0 0 0 0 127 0" result="hardAlpha"/>
<feOffset dy="-1"/>
<feGaussianBlur stdDeviation="2"/>
<feComposite in2="hardAlpha" operator="arithmetic" k2="-1" k3="1"/>
<feColorMatrix type="matrix" values="0 0 0 0 0.466667 0 0 0 0 0.384314 0 0 0 0 1 0 0 0 0.05 0"/>
<feBlend mode="normal" in2="shape" result="effect3_innerShadow_2316_15201"/>
</filter>
<filter id="filter1_ddi_2316_15201" x="0" y="60" width="100" height="100" filterUnits="userSpaceOnUse" color-interpolation-filters="sRGB">
<feFlood flood-opacity="0" result="BackgroundImageFix"/>
<feColorMatrix in="SourceAlpha" type="matrix" values="0 0 0 0 0 0 0 0 0 0 0 0 0 0 0 0 0 0 127 0" result="hardAlpha"/>
<feMorphology radius="2" operator="erode" in="SourceAlpha" result="effect1_dropShadow_2316_15201"/>
<feOffset dx="4" dy="4"/>
<feGaussianBlur stdDeviation="5"/>
<feComposite in2="hardAlpha" operator="out"/>
<feColorMatrix type="matrix" values="0 0 0 0 0.466667 0 0 0 0 0.384314 0 0 0 0 1 0 0 0 0.1 0"/>
<feBlend mode="normal" in2="BackgroundImageFix" result="effect1_dropShadow_2316_15201"/>
<feColorMatrix in="SourceAlpha" type="matrix" values="0 0 0 0 0 0 0 0 0 0 0 0 0 0 0 0 0 0 127 0" result="hardAlpha"/>
<feMorphology radius="1" operator="erode" in="SourceAlpha" result="effect2_dropShadow_2316_15201"/>
<feOffset dx="2" dy="2"/>
<feGaussianBlur stdDeviation="1"/>
<feComposite in2="hardAlpha" operator="out"/>
<feColorMatrix type="matrix" values="0 0 0 0 0.466667 0 0 0 0 0.384314 0 0 0 0 1 0 0 0 0.1 0"/>
<feBlend mode="normal" in2="effect1_dropShadow_2316_15201" result="effect2_dropShadow_2316_15201"/>
<feBlend mode="normal" in="SourceGraphic" in2="effect2_dropShadow_2316_15201" result="shape"/>
<feColorMatrix in="SourceAlpha" type="matrix" values="0 0 0 0 0 0 0 0 0 0 0 0 0 0 0 0 0 0 127 0" result="hardAlpha"/>
<feOffset dy="-1"/>
<feGaussianBlur stdDeviation="2"/>
<feComposite in2="hardAlpha" operator="arithmetic" k2="-1" k3="1"/>
<feColorMatrix type="matrix" values="0 0 0 0 0.466667 0 0 0 0 0.384314 0 0 0 0 1 0 0 0 0.05 0"/>
<feBlend mode="normal" in2="shape" result="effect3_innerShadow_2316_15201"/>
</filter>
<filter id="filter2_ddi_2316_15201" x="120" y="240" width="100" height="100" filterUnits="userSpaceOnUse" color-interpolation-filters="sRGB">
<feFlood flood-opacity="0" result="BackgroundImageFix"/>
<feColorMatrix in="SourceAlpha" type="matrix" values="0 0 0 0 0 0 0 0 0 0 0 0 0 0 0 0 0 0 127 0" result="hardAlpha"/>
<feMorphology radius="2" operator="erode" in="SourceAlpha" result="effect1_dropShadow_2316_15201"/>
<feOffset dx="4" dy="4"/>
<feGaussianBlur stdDeviation="5"/>
<feComposite in2="hardAlpha" operator="out"/>
<feColorMatrix type="matrix" values="0 0 0 0 0.466667 0 0 0 0 0.384314 0 0 0 0 1 0 0 0 0.1 0"/>
<feBlend mode="normal" in2="BackgroundImageFix" result="effect1_dropShadow_2316_15201"/>
<feColorMatrix in="SourceAlpha" type="matrix" values="0 0 0 0 0 0 0 0 0 0 0 0 0 0 0 0 0 0 127 0" result="hardAlpha"/>
<feMorphology radius="1" operator="erode" in="SourceAlpha" result="effect2_dropShadow_2316_15201"/>
<feOffset dx="2" dy="2"/>
<feGaussianBlur stdDeviation="1"/>
<feComposite in2="hardAlpha" operator="out"/>
<feColorMatrix type="matrix" values="0 0 0 0 0.466667 0 0 0 0 0.384314 0 0 0 0 1 0 0 0 0.1 0"/>
<feBlend mode="normal" in2="effect1_dropShadow_2316_15201" result="effect2_dropShadow_2316_15201"/>
<feBlend mode="normal" in="SourceGraphic" in2="effect2_dropShadow_2316_15201" result="shape"/>
<feColorMatrix in="SourceAlpha" type="matrix" values="0 0 0 0 0 0 0 0 0 0 0 0 0 0 0 0 0 0 127 0" result="hardAlpha"/>
<feOffset dy="-1"/>
<feGaussianBlur stdDeviation="2"/>
<feComposite in2="hardAlpha" operator="arithmetic" k2="-1" k3="1"/>
<feColorMatrix type="matrix" values="0 0 0 0 0.466667 0 0 0 0 0.384314 0 0 0 0 1 0 0 0 0.05 0"/>
<feBlend mode="normal" in2="shape" result="effect3_innerShadow_2316_15201"/>
</filter>
<filter id="filter3_ddi_2316_15201" x="120" y="120" width="100" height="100" filterUnits="userSpaceOnUse" color-interpolation-filters="sRGB">
<feFlood flood-opacity="0" result="BackgroundImageFix"/>
<feColorMatrix in="SourceAlpha" type="matrix" values="0 0 0 0 0 0 0 0 0 0 0 0 0 0 0 0 0 0 127 0" result="hardAlpha"/>
<feMorphology radius="2" operator="erode" in="SourceAlpha" result="effect1_dropShadow_2316_15201"/>
<feOffset dx="4" dy="4"/>
<feGaussianBlur stdDeviation="5"/>
<feComposite in2="hardAlpha" operator="out"/>
<feColorMatrix type="matrix" values="0 0 0 0 0.466667 0 0 0 0 0.384314 0 0 0 0 1 0 0 0 0.1 0"/>
<feBlend mode="normal" in2="BackgroundImageFix" result="effect1_dropShadow_2316_15201"/>
<feColorMatrix in="SourceAlpha" type="matrix" values="0 0 0 0 0 0 0 0 0 0 0 0 0 0 0 0 0 0 127 0" result="hardAlpha"/>
<feMorphology radius="1" operator="erode" in="SourceAlpha" result="effect2_dropShadow_2316_15201"/>
<feOffset dx="2" dy="2"/>
<feGaussianBlur stdDeviation="1"/>
<feComposite in2="hardAlpha" operator="out"/>
<feColorMatrix type="matrix" values="0 0 0 0 0.466667 0 0 0 0 0.384314 0 0 0 0 1 0 0 0 0.1 0"/>
<feBlend mode="normal" in2="effect1_dropShadow_2316_15201" result="effect2_dropShadow_2316_15201"/>
<feBlend mode="normal" in="SourceGraphic" in2="effect2_dropShadow_2316_15201" result="shape"/>
<feColorMatrix in="SourceAlpha" type="matrix" values="0 0 0 0 0 0 0 0 0 0 0 0 0 0 0 0 0 0 127 0" result="hardAlpha"/>
<feOffset dy="-1"/>
<feGaussianBlur stdDeviation="2"/>
<feComposite in2="hardAlpha" operator="arithmetic" k2="-1" k3="1"/>
<feColorMatrix type="matrix" values="0 0 0 0 0.466667 0 0 0 0 0.384314 0 0 0 0 1 0 0 0 0.05 0"/>
<feBlend mode="normal" in2="shape" result="effect3_innerShadow_2316_15201"/>
</filter>
<filter id="filter4_ddi_2316_15201" x="120" y="0" width="100" height="100" filterUnits="userSpaceOnUse" color-interpolation-filters="sRGB">
<feFlood flood-opacity="0" result="BackgroundImageFix"/>
<feColorMatrix in="SourceAlpha" type="matrix" values="0 0 0 0 0 0 0 0 0 0 0 0 0 0 0 0 0 0 127 0" result="hardAlpha"/>
<feMorphology radius="2" operator="erode" in="SourceAlpha" result="effect1_dropShadow_2316_15201"/>
<feOffset dx="4" dy="4"/>
<feGaussianBlur stdDeviation="5"/>
<feComposite in2="hardAlpha" operator="out"/>
<feColorMatrix type="matrix" values="0 0 0 0 0.466667 0 0 0 0 0.384314 0 0 0 0 1 0 0 0 0.1 0"/>
<feBlend mode="normal" in2="BackgroundImageFix" result="effect1_dropShadow_2316_15201"/>
<feColorMatrix in="SourceAlpha" type="matrix" values="0 0 0 0 0 0 0 0 0 0 0 0 0 0 0 0 0 0 127 0" result="hardAlpha"/>
<feMorphology radius="1" operator="erode" in="SourceAlpha" result="effect2_dropShadow_2316_15201"/>
<feOffset dx="2" dy="2"/>
<feGaussianBlur stdDeviation="1"/>
<feComposite in2="hardAlpha" operator="out"/>
<feColorMatrix type="matrix" values="0 0 0 0 0.466667 0 0 0 0 0.384314 0 0 0 0 1 0 0 0 0.1 0"/>
<feBlend mode="normal" in2="effect1_dropShadow_2316_15201" result="effect2_dropShadow_2316_15201"/>
<feBlend mode="normal" in="SourceGraphic" in2="effect2_dropShadow_2316_15201" result="shape"/>
<feColorMatrix in="SourceAlpha" type="matrix" values="0 0 0 0 0 0 0 0 0 0 0 0 0 0 0 0 0 0 127 0" result="hardAlpha"/>
<feOffset dy="-1"/>
<feGaussianBlur stdDeviation="2"/>
<feComposite in2="hardAlpha" operator="arithmetic" k2="-1" k3="1"/>
<feColorMatrix type="matrix" values="0 0 0 0 0.466667 0 0 0 0 0.384314 0 0 0 0 1 0 0 0 0.05 0"/>
<feBlend mode="normal" in2="shape" result="effect3_innerShadow_2316_15201"/>
</filter>
<filter id="filter5_ddi_2316_15201" x="240" y="180" width="100" height="100" filterUnits="userSpaceOnUse" color-interpolation-filters="sRGB">
<feFlood flood-opacity="0" result="BackgroundImageFix"/>
<feColorMatrix in="SourceAlpha" type="matrix" values="0 0 0 0 0 0 0 0 0 0 0 0 0 0 0 0 0 0 127 0" result="hardAlpha"/>
<feMorphology radius="2" operator="erode" in="SourceAlpha" result="effect1_dropShadow_2316_15201"/>
<feOffset dx="4" dy="4"/>
<feGaussianBlur stdDeviation="5"/>
<feComposite in2="hardAlpha" operator="out"/>
<feColorMatrix type="matrix" values="0 0 0 0 0.466667 0 0 0 0 0.384314 0 0 0 0 1 0 0 0 0.1 0"/>
<feBlend mode="normal" in2="BackgroundImageFix" result="effect1_dropShadow_2316_15201"/>
<feColorMatrix in="SourceAlpha" type="matrix" values="0 0 0 0 0 0 0 0 0 0 0 0 0 0 0 0 0 0 127 0" result="hardAlpha"/>
<feMorphology radius="1" operator="erode" in="SourceAlpha" result="effect2_dropShadow_2316_15201"/>
<feOffset dx="2" dy="2"/>
<feGaussianBlur stdDeviation="1"/>
<feComposite in2="hardAlpha" operator="out"/>
<feColorMatrix type="matrix" values="0 0 0 0 0.466667 0 0 0 0 0.384314 0 0 0 0 1 0 0 0 0.1 0"/>
<feBlend mode="normal" in2="effect1_dropShadow_2316_15201" result="effect2_dropShadow_2316_15201"/>
<feBlend mode="normal" in="SourceGraphic" in2="effect2_dropShadow_2316_15201" result="shape"/>
<feColorMatrix in="SourceAlpha" type="matrix" values="0 0 0 0 0 0 0 0 0 0 0 0 0 0 0 0 0 0 127 0" result="hardAlpha"/>
<feOffset dy="-1"/>
<feGaussianBlur stdDeviation="2"/>
<feComposite in2="hardAlpha" operator="arithmetic" k2="-1" k3="1"/>
<feColorMatrix type="matrix" values="0 0 0 0 0.466667 0 0 0 0 0.384314 0 0 0 0 1 0 0 0 0.05 0"/>
<feBlend mode="normal" in2="shape" result="effect3_innerShadow_2316_15201"/>
</filter>
<filter id="filter6_ddi_2316_15201" x="240" y="60" width="100" height="100" filterUnits="userSpaceOnUse" color-interpolation-filters="sRGB">
<feFlood flood-opacity="0" result="BackgroundImageFix"/>
<feColorMatrix in="SourceAlpha" type="matrix" values="0 0 0 0 0 0 0 0 0 0 0 0 0 0 0 0 0 0 127 0" result="hardAlpha"/>
<feMorphology radius="2" operator="erode" in="SourceAlpha" result="effect1_dropShadow_2316_15201"/>
<feOffset dx="4" dy="4"/>
<feGaussianBlur stdDeviation="5"/>
<feComposite in2="hardAlpha" operator="out"/>
<feColorMatrix type="matrix" values="0 0 0 0 0.466667 0 0 0 0 0.384314 0 0 0 0 1 0 0 0 0.1 0"/>
<feBlend mode="normal" in2="BackgroundImageFix" result="effect1_dropShadow_2316_15201"/>
<feColorMatrix in="SourceAlpha" type="matrix" values="0 0 0 0 0 0 0 0 0 0 0 0 0 0 0 0 0 0 127 0" result="hardAlpha"/>
<feMorphology radius="1" operator="erode" in="SourceAlpha" result="effect2_dropShadow_2316_15201"/>
<feOffset dx="2" dy="2"/>
<feGaussianBlur stdDeviation="1"/>
<feComposite in2="hardAlpha" operator="out"/>
<feColorMatrix type="matrix" values="0 0 0 0 0.466667 0 0 0 0 0.384314 0 0 0 0 1 0 0 0 0.1 0"/>
<feBlend mode="normal" in2="effect1_dropShadow_2316_15201" result="effect2_dropShadow_2316_15201"/>
<feBlend mode="normal" in="SourceGraphic" in2="effect2_dropShadow_2316_15201" result="shape"/>
<feColorMatrix in="SourceAlpha" type="matrix" values="0 0 0 0 0 0 0 0 0 0 0 0 0 0 0 0 0 0 127 0" result="hardAlpha"/>
<feOffset dy="-1"/>
<feGaussianBlur stdDeviation="2"/>
<feComposite in2="hardAlpha" operator="arithmetic" k2="-1" k3="1"/>
<feColorMatrix type="matrix" values="0 0 0 0 0.466667 0 0 0 0 0.384314 0 0 0 0 1 0 0 0 0.05 0"/>
<feBlend mode="normal" in2="shape" result="effect3_innerShadow_2316_15201"/>
</filter>
<filter id="filter7_ddi_2316_15201" x="360" y="240" width="100" height="100" filterUnits="userSpaceOnUse" color-interpolation-filters="sRGB">
<feFlood flood-opacity="0" result="BackgroundImageFix"/>
<feColorMatrix in="SourceAlpha" type="matrix" values="0 0 0 0 0 0 0 0 0 0 0 0 0 0 0 0 0 0 127 0" result="hardAlpha"/>
<feMorphology radius="2" operator="erode" in="SourceAlpha" result="effect1_dropShadow_2316_15201"/>
<feOffset dx="4" dy="4"/>
<feGaussianBlur stdDeviation="5"/>
<feComposite in2="hardAlpha" operator="out"/>
<feColorMatrix type="matrix" values="0 0 0 0 0.466667 0 0 0 0 0.384314 0 0 0 0 1 0 0 0 0.1 0"/>
<feBlend mode="normal" in2="BackgroundImageFix" result="effect1_dropShadow_2316_15201"/>
<feColorMatrix in="SourceAlpha" type="matrix" values="0 0 0 0 0 0 0 0 0 0 0 0 0 0 0 0 0 0 127 0" result="hardAlpha"/>
<feMorphology radius="1" operator="erode" in="SourceAlpha" result="effect2_dropShadow_2316_15201"/>
<feOffset dx="2" dy="2"/>
<feGaussianBlur stdDeviation="1"/>
<feComposite in2="hardAlpha" operator="out"/>
<feColorMatrix type="matrix" values="0 0 0 0 0.466667 0 0 0 0 0.384314 0 0 0 0 1 0 0 0 0.1 0"/>
<feBlend mode="normal" in2="effect1_dropShadow_2316_15201" result="effect2_dropShadow_2316_15201"/>
<feBlend mode="normal" in="SourceGraphic" in2="effect2_dropShadow_2316_15201" result="shape"/>
<feColorMatrix in="SourceAlpha" type="matrix" values="0 0 0 0 0 0 0 0 0 0 0 0 0 0 0 0 0 0 127 0" result="hardAlpha"/>
<feOffset dy="-1"/>
<feGaussianBlur stdDeviation="2"/>
<feComposite in2="hardAlpha" operator="arithmetic" k2="-1" k3="1"/>
<feColorMatrix type="matrix" values="0 0 0 0 0.466667 0 0 0 0 0.384314 0 0 0 0 1 0 0 0 0.05 0"/>
<feBlend mode="normal" in2="shape" result="effect3_innerShadow_2316_15201"/>
</filter>
<filter id="filter8_ddi_2316_15201" x="360" y="120" width="100" height="100" filterUnits="userSpaceOnUse" color-interpolation-filters="sRGB">
<feFlood flood-opacity="0" result="BackgroundImageFix"/>
<feColorMatrix in="SourceAlpha" type="matrix" values="0 0 0 0 0 0 0 0 0 0 0 0 0 0 0 0 0 0 127 0" result="hardAlpha"/>
<feMorphology radius="2" operator="erode" in="SourceAlpha" result="effect1_dropShadow_2316_15201"/>
<feOffset dx="4" dy="4"/>
<feGaussianBlur stdDeviation="5"/>
<feComposite in2="hardAlpha" operator="out"/>
<feColorMatrix type="matrix" values="0 0 0 0 0.466667 0 0 0 0 0.384314 0 0 0 0 1 0 0 0 0.1 0"/>
<feBlend mode="normal" in2="BackgroundImageFix" result="effect1_dropShadow_2316_15201"/>
<feColorMatrix in="SourceAlpha" type="matrix" values="0 0 0 0 0 0 0 0 0 0 0 0 0 0 0 0 0 0 127 0" result="hardAlpha"/>
<feMorphology radius="1" operator="erode" in="SourceAlpha" result="effect2_dropShadow_2316_15201"/>
<feOffset dx="2" dy="2"/>
<feGaussianBlur stdDeviation="1"/>
<feComposite in2="hardAlpha" operator="out"/>
<feColorMatrix type="matrix" values="0 0 0 0 0.466667 0 0 0 0 0.384314 0 0 0 0 1 0 0 0 0.1 0"/>
<feBlend mode="normal" in2="effect1_dropShadow_2316_15201" result="effect2_dropShadow_2316_15201"/>
<feBlend mode="normal" in="SourceGraphic" in2="effect2_dropShadow_2316_15201" result="shape"/>
<feColorMatrix in="SourceAlpha" type="matrix" values="0 0 0 0 0 0 0 0 0 0 0 0 0 0 0 0 0 0 127 0" result="hardAlpha"/>
<feOffset dy="-1"/>
<feGaussianBlur stdDeviation="2"/>
<feComposite in2="hardAlpha" operator="arithmetic" k2="-1" k3="1"/>
<feColorMatrix type="matrix" values="0 0 0 0 0.466667 0 0 0 0 0.384314 0 0 0 0 1 0 0 0 0.05 0"/>
<feBlend mode="normal" in2="shape" result="effect3_innerShadow_2316_15201"/>
</filter>
<filter id="filter9_ddi_2316_15201" x="360" y="0" width="100" height="100" filterUnits="userSpaceOnUse" color-interpolation-filters="sRGB">
<feFlood flood-opacity="0" result="BackgroundImageFix"/>
<feColorMatrix in="SourceAlpha" type="matrix" values="0 0 0 0 0 0 0 0 0 0 0 0 0 0 0 0 0 0 127 0" result="hardAlpha"/>
<feMorphology radius="2" operator="erode" in="SourceAlpha" result="effect1_dropShadow_2316_15201"/>
<feOffset dx="4" dy="4"/>
<feGaussianBlur stdDeviation="5"/>
<feComposite in2="hardAlpha" operator="out"/>
<feColorMatrix type="matrix" values="0 0 0 0 0.466667 0 0 0 0 0.384314 0 0 0 0 1 0 0 0 0.1 0"/>
<feBlend mode="normal" in2="BackgroundImageFix" result="effect1_dropShadow_2316_15201"/>
<feColorMatrix in="SourceAlpha" type="matrix" values="0 0 0 0 0 0 0 0 0 0 0 0 0 0 0 0 0 0 127 0" result="hardAlpha"/>
<feMorphology radius="1" operator="erode" in="SourceAlpha" result="effect2_dropShadow_2316_15201"/>
<feOffset dx="2" dy="2"/>
<feGaussianBlur stdDeviation="1"/>
<feComposite in2="hardAlpha" operator="out"/>
<feColorMatrix type="matrix" values="0 0 0 0 0.466667 0 0 0 0 0.384314 0 0 0 0 1 0 0 0 0.1 0"/>
<feBlend mode="normal" in2="effect1_dropShadow_2316_15201" result="effect2_dropShadow_2316_15201"/>
<feBlend mode="normal" in="SourceGraphic" in2="effect2_dropShadow_2316_15201" result="shape"/>
<feColorMatrix in="SourceAlpha" type="matrix" values="0 0 0 0 0 0 0 0 0 0 0 0 0 0 0 0 0 0 127 0" result="hardAlpha"/>
<feOffset dy="-1"/>
<feGaussianBlur stdDeviation="2"/>
<feComposite in2="hardAlpha" operator="arithmetic" k2="-1" k3="1"/>
<feColorMatrix type="matrix" values="0 0 0 0 0.466667 0 0 0 0 0.384314 0 0 0 0 1 0 0 0 0.05 0"/>
<feBlend mode="normal" in2="shape" result="effect3_innerShadow_2316_15201"/>
</filter>
<filter id="filter10_ddi_2316_15201" x="480" y="180" width="100" height="100" filterUnits="userSpaceOnUse" color-interpolation-filters="sRGB">
<feFlood flood-opacity="0" result="BackgroundImageFix"/>
<feColorMatrix in="SourceAlpha" type="matrix" values="0 0 0 0 0 0 0 0 0 0 0 0 0 0 0 0 0 0 127 0" result="hardAlpha"/>
<feMorphology radius="2" operator="erode" in="SourceAlpha" result="effect1_dropShadow_2316_15201"/>
<feOffset dx="4" dy="4"/>
<feGaussianBlur stdDeviation="5"/>
<feComposite in2="hardAlpha" operator="out"/>
<feColorMatrix type="matrix" values="0 0 0 0 0.466667 0 0 0 0 0.384314 0 0 0 0 1 0 0 0 0.1 0"/>
<feBlend mode="normal" in2="BackgroundImageFix" result="effect1_dropShadow_2316_15201"/>
<feColorMatrix in="SourceAlpha" type="matrix" values="0 0 0 0 0 0 0 0 0 0 0 0 0 0 0 0 0 0 127 0" result="hardAlpha"/>
<feMorphology radius="1" operator="erode" in="SourceAlpha" result="effect2_dropShadow_2316_15201"/>
<feOffset dx="2" dy="2"/>
<feGaussianBlur stdDeviation="1"/>
<feComposite in2="hardAlpha" operator="out"/>
<feColorMatrix type="matrix" values="0 0 0 0 0.466667 0 0 0 0 0.384314 0 0 0 0 1 0 0 0 0.1 0"/>
<feBlend mode="normal" in2="effect1_dropShadow_2316_15201" result="effect2_dropShadow_2316_15201"/>
<feBlend mode="normal" in="SourceGraphic" in2="effect2_dropShadow_2316_15201" result="shape"/>
<feColorMatrix in="SourceAlpha" type="matrix" values="0 0 0 0 0 0 0 0 0 0 0 0 0 0 0 0 0 0 127 0" result="hardAlpha"/>
<feOffset dy="-1"/>
<feGaussianBlur stdDeviation="2"/>
<feComposite in2="hardAlpha" operator="arithmetic" k2="-1" k3="1"/>
<feColorMatrix type="matrix" values="0 0 0 0 0.466667 0 0 0 0 0.384314 0 0 0 0 1 0 0 0 0.05 0"/>
<feBlend mode="normal" in2="shape" result="effect3_innerShadow_2316_15201"/>
</filter>
<filter id="filter11_ddi_2316_15201" x="480" y="60" width="100" height="100" filterUnits="userSpaceOnUse" color-interpolation-filters="sRGB">
<feFlood flood-opacity="0" result="BackgroundImageFix"/>
<feColorMatrix in="SourceAlpha" type="matrix" values="0 0 0 0 0 0 0 0 0 0 0 0 0 0 0 0 0 0 127 0" result="hardAlpha"/>
<feMorphology radius="2" operator="erode" in="SourceAlpha" result="effect1_dropShadow_2316_15201"/>
<feOffset dx="4" dy="4"/>
<feGaussianBlur stdDeviation="5"/>
<feComposite in2="hardAlpha" operator="out"/>
<feColorMatrix type="matrix" values="0 0 0 0 0.466667 0 0 0 0 0.384314 0 0 0 0 1 0 0 0 0.1 0"/>
<feBlend mode="normal" in2="BackgroundImageFix" result="effect1_dropShadow_2316_15201"/>
<feColorMatrix in="SourceAlpha" type="matrix" values="0 0 0 0 0 0 0 0 0 0 0 0 0 0 0 0 0 0 127 0" result="hardAlpha"/>
<feMorphology radius="1" operator="erode" in="SourceAlpha" result="effect2_dropShadow_2316_15201"/>
<feOffset dx="2" dy="2"/>
<feGaussianBlur stdDeviation="1"/>
<feComposite in2="hardAlpha" operator="out"/>
<feColorMatrix type="matrix" values="0 0 0 0 0.466667 0 0 0 0 0.384314 0 0 0 0 1 0 0 0 0.1 0"/>
<feBlend mode="normal" in2="effect1_dropShadow_2316_15201" result="effect2_dropShadow_2316_15201"/>
<feBlend mode="normal" in="SourceGraphic" in2="effect2_dropShadow_2316_15201" result="shape"/>
<feColorMatrix in="SourceAlpha" type="matrix" values="0 0 0 0 0 0 0 0 0 0 0 0 0 0 0 0 0 0 127 0" result="hardAlpha"/>
<feOffset dy="-1"/>
<feGaussianBlur stdDeviation="2"/>
<feComposite in2="hardAlpha" operator="arithmetic" k2="-1" k3="1"/>
<feColorMatrix type="matrix" values="0 0 0 0 0.466667 0 0 0 0 0.384314 0 0 0 0 1 0 0 0 0.05 0"/>
<feBlend mode="normal" in2="shape" result="effect3_innerShadow_2316_15201"/>
</filter>
<linearGradient id="paint0_linear_2316_15201" x1="166.623" y1="28.4951" x2="166.623" y2="63.5071" gradientUnits="userSpaceOnUse">
<stop stop-color="#7C86D6"/>
<stop offset="1" stop-color="#CD1599"/>
</linearGradient>
<linearGradient id="paint1_linear_2316_15201" x1="406.623" y1="148.495" x2="406.623" y2="183.507" gradientUnits="userSpaceOnUse">
<stop stop-color="#7C86D6"/>
<stop offset="1" stop-color="#CD1599"/>
</linearGradient>
<clipPath id="clip0_2316_15201">
<rect width="24.832" height="40" fill="white" transform="translate(154 146)"/>
</clipPath>
<clipPath id="clip1_2316_15201">
<rect width="24.832" height="40" fill="white" transform="translate(394 266)"/>
</clipPath>
<clipPath id="clip2_2316_15201">
<rect width="24.832" height="40" fill="white" transform="translate(394 26)"/>
</clipPath>
</defs>
</svg>
