<svg width="355" height="306" viewBox="0 0 355 306" fill="none" xmlns="http://www.w3.org/2000/svg">
<path d="M1 233.704H354V304.786H1V233.704Z" fill="white" stroke="#DBE2E8" stroke-width="1.5" stroke-linejoin="round"/>
<path d="M1 233.704H354L275.785 85.9997H50.6022L1 233.704Z" fill="white" stroke="#DBE2E8" stroke-width="1.5" stroke-linejoin="round"/>
<g clip-path="url(#clip0_5329_22904)">
<path d="M134.726 204.789L159.356 230.651L142.216 234.793L117.586 208.931L134.726 204.789Z" fill="#F97216" stroke="white" stroke-width="0.561943" stroke-linecap="round" stroke-linejoin="round"/>
<path d="M213.536 45.1929L238.167 71.0551L234.849 82.3026L221.192 67.962C218.111 64.8302 213.805 63.1855 208.276 63.0506L213.536 45.1929Z" fill="#F97216" stroke="white" stroke-width="0.561943" stroke-linecap="round" stroke-linejoin="round"/>
<path d="M205.738 82.8975C208.128 85.3809 208.634 88.9425 207.284 93.5576C207.216 93.7707 207.16 93.9966 207.066 94.2091C205.633 98.5822 202.866 102.746 198.742 106.649C194.411 110.75 189.901 113.368 185.174 114.516L173.447 102.331L160.809 89.1904L195.076 80.8945C196.74 80.493 198.273 80.3155 199.661 80.3747C201.037 80.4209 202.255 80.6907 203.355 81.1722C204.254 81.5983 205.036 82.1604 205.738 82.8975Z" fill="#F97216" stroke="white" stroke-width="0.561943" stroke-linecap="round" stroke-linejoin="round"/>
<path d="M213.551 45.1906L196.399 49.3444L191.467 66.1489L191.353 66.1841L174.314 70.3028L179.259 53.4857L162.119 57.6272L157.175 74.4443L131.458 80.6628L126.514 97.4798L143.667 93.3259L138.722 110.143L118.918 177.385L101.779 181.527L96.8339 198.344L122.55 192.126L117.593 208.93L134.733 204.788L139.69 187.984L148.686 185.804L156.817 183.83L151.873 200.647L160.868 198.466L169.025 196.493L173.97 179.676C183.397 177.405 192.43 172.156 201.08 163.943C203.68 161.467 206.002 158.96 208.06 156.408C212.879 150.438 216.238 144.23 218.139 137.759C218.263 137.32 218.388 136.881 218.499 136.454C219.949 130.856 219.953 126.069 218.484 122.067C217.798 120.181 216.852 118.541 215.674 117.148C214.139 115.355 212.227 113.995 209.901 113.029C211.443 111.437 212.898 109.78 214.253 108.07C215.921 105.989 217.439 103.828 218.832 101.589C221.356 97.5328 223.211 93.473 224.409 89.3973C226.145 83.478 226.357 78.4185 224.993 74.2424C224.572 72.8933 223.983 71.6285 223.216 70.4604C222.668 69.626 222.056 68.8532 221.391 68.1549L221.206 67.961C218.125 64.8292 213.82 63.1832 208.291 63.0483L213.551 45.1906ZM200.999 141.9C200.931 142.113 200.875 142.339 200.781 142.552C199.361 146.938 196.594 151.102 192.47 155.005C188.138 159.105 183.628 161.723 178.902 162.871L170.122 164.994L153.63 168.987L136.058 173.244L145.96 139.623L163.532 135.366L180.672 131.224L188.804 129.25C193.517 128.114 197.063 128.782 199.465 131.253C201.855 133.736 202.362 137.298 200.999 141.9ZM207.282 93.5518C207.213 93.7648 207.157 93.9907 207.064 94.2031C205.631 98.5763 202.864 102.74 198.74 106.643C194.408 110.744 189.898 113.362 185.172 114.51L151.324 122.702L150.905 122.806L160.806 89.1845L195.074 80.8885C196.738 80.487 198.271 80.3097 199.659 80.3688C201.034 80.415 202.253 80.6847 203.353 81.1663C204.252 81.5924 205.034 82.1546 205.736 82.8917C208.125 85.375 208.632 88.9366 207.282 93.5518Z" fill="#FCC39C" stroke="white" stroke-width="0.561943" stroke-linecap="round" stroke-linejoin="round"/>
<path d="M169.02 196.495L193.65 222.358L176.498 226.512L151.867 200.649L160.863 198.469L169.02 196.495Z" fill="#F97216" stroke="white" stroke-width="0.561943" stroke-linecap="round" stroke-linejoin="round"/>
<path d="M221.377 68.1513L246.02 94.0265C246.685 94.7248 247.285 95.4846 247.833 96.319C250.937 101.106 251.326 107.418 249.026 115.256C247.827 119.332 245.973 123.392 243.448 127.448C241.148 131.143 238.486 134.64 235.425 137.925L226.755 128.821L215.66 117.145C214.125 115.352 212.213 113.992 209.887 113.026C211.429 111.434 212.884 109.777 214.239 108.067C215.907 105.986 217.425 103.825 218.818 101.586C221.342 97.5295 223.197 93.4698 224.395 89.3941C226.131 83.4748 226.343 78.4149 224.98 74.2388C224.558 72.8897 223.97 71.6249 223.203 70.4568C222.655 69.6224 222.042 68.8496 221.377 68.1513Z" fill="#F97216" stroke="white" stroke-width="0.561943" stroke-linecap="round" stroke-linejoin="round"/>
<path d="M185.153 114.514L151.305 122.707L150.886 122.81L160.788 89.1892L173.426 102.33L185.153 114.514Z" fill="#F97216" stroke="white" stroke-width="0.561943" stroke-linecap="round" stroke-linejoin="round"/>
<path d="M143.668 93.3257L138.724 110.143L126.516 97.4795L143.668 93.3257Z" fill="#F97216" stroke="white" stroke-width="0.561943" stroke-linecap="round" stroke-linejoin="round"/>
<path d="M122.536 192.127L117.579 208.931L130.129 222.108L121.451 224.208L96.8203 198.346L122.536 192.127Z" fill="#F97216" stroke="white" stroke-width="0.561943" stroke-linecap="round" stroke-linejoin="round"/>
<path d="M139.698 187.988L164.329 213.85L159.372 230.655L134.741 204.792L139.698 187.988Z" fill="#F97216" stroke="white" stroke-width="0.561943" stroke-linecap="round" stroke-linejoin="round"/>
<path d="M156.811 183.83L151.866 200.647L164.415 213.824L164.314 213.847L139.684 187.984L148.679 185.804L156.811 183.83Z" fill="#F97216" stroke="white" stroke-width="0.561943" stroke-linecap="round" stroke-linejoin="round"/>
<path d="M145.952 139.628L170.114 164.999L153.622 168.992L136.05 173.249L145.952 139.628Z" fill="#F97216" stroke="white" stroke-width="0.561943" stroke-linecap="round" stroke-linejoin="round"/>
<path d="M199.455 131.253C201.845 133.737 202.351 137.298 200.989 141.9C200.92 142.113 200.864 142.34 200.771 142.552C199.35 146.938 196.584 151.102 192.459 155.005C188.128 159.105 183.618 161.724 178.891 162.871L170.112 164.994L145.949 139.623L163.521 135.366L180.661 131.224L188.793 129.25C193.507 128.115 197.052 128.782 199.455 131.253Z" fill="#F97216" stroke="white" stroke-width="0.561943" stroke-linecap="round" stroke-linejoin="round"/>
<path d="M179.265 53.4862L191.358 66.1846L174.32 70.3033L179.265 53.4862Z" fill="#F97216" stroke="white" stroke-width="0.561943" stroke-linecap="round" stroke-linejoin="round"/>
<path d="M173.98 179.678L198.61 205.54L193.665 222.357L169.035 196.495L173.98 179.678Z" fill="#F97216" stroke="white" stroke-width="0.561943" stroke-linecap="round" stroke-linejoin="round"/>
<path d="M235.431 137.929L239.212 141.899C240.978 143.521 242.194 145.445 243.106 147.931C244.694 152.239 244.566 157.465 242.761 163.622C240.034 172.877 234.353 181.593 225.702 189.806C217.052 198.02 208.02 203.268 198.592 205.539L173.962 179.677C183.389 177.406 192.422 172.158 201.072 163.944C203.671 161.469 205.993 158.961 208.051 156.409C212.87 150.439 216.23 144.231 218.131 137.76C218.255 137.321 218.38 136.882 218.491 136.455C219.941 130.857 219.944 126.07 218.476 122.068C217.789 120.182 216.844 118.543 215.665 117.15L235.444 137.917L235.431 137.929Z" fill="#F97216" stroke="white" stroke-width="0.561943" stroke-linecap="round" stroke-linejoin="round"/>
<path d="M240.085 142.816L239.211 141.897L240.085 142.816Z" fill="#F97216"/>
<path d="M240.085 142.816L239.211 141.897" stroke="white" stroke-width="0.561943" stroke-linecap="round" stroke-linejoin="round"/>
<path d="M215.675 117.15L214.887 116.322L215.675 117.15Z" fill="#F97216"/>
<path d="M215.675 117.15L214.887 116.322" stroke="white" stroke-width="0.561943" stroke-linecap="round" stroke-linejoin="round"/>
</g>
<defs>
<clipPath id="clip0_5329_22904">
<rect width="200" height="200" fill="white" transform="translate(32 137.93) rotate(-43.6024)"/>
</clipPath>
</defs>
</svg>
