<svg width="321" height="321" viewBox="0 0 321 321" fill="none" xmlns="http://www.w3.org/2000/svg">
<path d="M216.968 243.4L217.96 242.904C219.536 242.058 220.995 240.978 222.337 239.636C226.686 235.288 228.874 228.722 228.874 219.909C228.874 208.586 225.372 196.884 218.368 184.832C212.678 174.969 205.996 167.236 198.379 161.633C196.657 160.378 194.877 159.211 193.068 158.16C183.672 152.761 175.617 151.711 168.847 155.008L168.614 155.125C168.322 155.271 168.03 155.417 167.738 155.592C160.764 159.561 157.262 167.236 157.262 178.587C157.262 183.344 157.875 188.188 159.101 193.062C160.297 197.818 162.077 202.633 164.411 207.507C167.709 214.306 171.619 220.405 176.23 225.774C178.273 228.226 180.49 230.502 182.825 232.661V287.231L198.175 313.698L218.631 302.055L203.282 275.588L218.631 266.833L205.85 244.772C209.994 245.326 213.699 244.888 216.968 243.4ZM200.364 205.96C198.379 207.069 195.957 206.806 193.068 205.114C190.15 203.45 187.728 200.911 185.773 197.526C183.817 194.17 182.825 190.815 182.825 187.488C182.825 184.161 183.817 181.943 185.773 180.805C187.728 179.696 190.15 179.959 193.068 181.651C195.957 183.315 198.379 185.854 200.364 189.239C202.319 192.624 203.282 195.951 203.282 199.277C203.282 202.604 202.319 204.822 200.364 205.96Z" fill="#A799FF" stroke="#5037F3" stroke-width="2.8" stroke-linecap="round" stroke-linejoin="round"/>
<path d="M200.362 189.239C198.378 185.854 195.956 183.315 193.067 181.652C190.149 179.959 187.727 179.696 185.772 180.805C183.816 181.943 182.824 184.161 182.824 187.488C182.824 190.815 183.816 194.171 185.772 197.527C187.727 200.912 190.149 203.45 193.067 205.114C195.956 206.806 198.378 207.069 200.362 205.96C202.318 204.822 203.281 202.604 203.281 199.277C203.281 195.951 202.318 192.624 200.362 189.239Z" fill="#7762FF" stroke="#5037F3" stroke-width="2.8" stroke-linecap="round" stroke-linejoin="round"/>
<path d="M276.996 272.874L256.539 284.518L198.176 313.699L218.632 302.055L255.897 283.409L276.996 272.874Z" fill="#7762FF" stroke="#5037F3" stroke-width="2.8" stroke-linecap="round" stroke-linejoin="round"/>
<path d="M276.995 272.874L255.896 283.409L218.631 302.055L203.281 275.588L241.188 256.649L261.645 246.406L276.995 272.874Z" fill="#7762FF" stroke="#5037F3" stroke-width="2.8" stroke-linecap="round" stroke-linejoin="round"/>
<path d="M276.995 237.651L261.645 246.406L241.188 256.649L203.281 275.588L218.631 266.833L241.188 255.569L276.995 237.651Z" fill="#7762FF" stroke="#5037F3" stroke-width="2.8" stroke-linecap="round" stroke-linejoin="round"/>
<path d="M276.997 237.652L241.19 255.57L218.633 266.834L205.852 244.773C209.995 245.327 213.701 244.89 216.97 243.401L217.962 242.905L218.633 242.555L241.19 231.32L266.112 218.859L276.997 237.652Z" fill="#7762FF" stroke="#5037F3" stroke-width="2.8" stroke-linecap="round" stroke-linejoin="round"/>
<path d="M157.26 178.587C157.26 183.344 157.873 188.189 159.099 193.062C160.296 197.819 162.075 202.634 164.41 207.507C167.707 214.306 171.618 220.405 176.229 225.775L160.85 233.478C152.65 222.302 146.434 210.425 142.174 197.906C140.16 192.011 138.73 186.321 137.826 180.776C136.775 174.502 136.454 168.462 136.804 162.654L195.168 133.473C194.992 136.216 194.992 139.017 195.109 141.877L168.846 155.009L168.612 155.126C168.321 155.271 168.029 155.417 167.737 155.592C160.762 159.561 157.26 167.236 157.26 178.587Z" fill="#7762FF" stroke="#5037F3" stroke-width="2.8" stroke-linecap="round" stroke-linejoin="round"/>
<path d="M160.852 233.479V256.941L34.5234 184.016V151.157C34.5234 144.503 36.0118 139.251 38.9883 135.399C40.3891 133.589 42.0237 132.189 43.8622 131.196L44.3873 130.934C46.3425 130 48.5019 129.533 50.8948 129.504C61.4586 129.533 72.1975 131.167 83.1115 134.436C86.3507 135.399 89.6188 136.537 92.8871 137.792C100.62 140.768 108.441 144.533 116.349 149.085C119.764 151.069 123.178 153.17 126.563 155.447C129.977 157.694 133.391 160.116 136.806 162.654C136.456 168.462 136.806 174.502 137.827 180.776C138.732 186.321 140.162 192.011 142.176 197.906C146.436 210.425 152.651 222.302 160.852 233.479Z" fill="#A799FF" stroke="#5037F3" stroke-width="2.8" stroke-linecap="round" stroke-linejoin="round"/>
<path d="M195.165 133.472L136.801 162.654C133.387 160.115 129.973 157.693 126.559 155.446C123.174 153.17 119.759 151.068 116.345 149.084C108.437 144.532 100.616 140.767 92.8825 137.791C89.6142 136.536 86.3464 135.398 83.1072 134.435C72.1932 131.166 61.454 129.533 50.8903 129.503C48.4974 129.533 46.338 129.999 44.3828 130.933L88.7098 108.988C90.1981 111.469 91.7742 113.803 93.3792 116.021C100.091 125.272 107.736 132.392 116.345 137.353C127.609 143.861 137.239 144.824 145.235 140.242L179.815 122.966C181.537 124.046 183.23 125.126 184.922 126.264C188.337 128.511 191.751 130.933 195.165 133.472Z" fill="#7762FF" stroke="#5037F3" stroke-width="2.8" stroke-linecap="round" stroke-linejoin="round"/>
<path d="M157.263 114.037C157.263 126.936 153.266 135.691 145.241 140.243C137.245 144.825 127.615 143.861 116.35 137.354C107.742 132.393 100.096 125.272 93.3846 116.022C91.7796 113.804 90.2035 111.469 88.7152 108.989C88.2775 108.318 87.8692 107.589 87.4607 106.888C79.4357 93.056 75.4375 79.6904 75.4375 66.792C75.4375 53.8937 79.4357 45.1391 87.4607 40.5576L89.3572 39.6238C96.9445 36.1803 105.962 37.4643 116.35 43.4466C125.105 48.5242 132.896 55.7908 139.667 65.2749C141.622 67.9888 143.461 70.8775 145.241 73.9416C147.663 78.1438 149.734 82.2876 151.398 86.373C154.9 94.7774 156.826 103.007 157.176 111.061C157.234 112.053 157.263 113.045 157.263 114.037Z" fill="#A799FF" stroke="#5037F3" stroke-width="2.8" stroke-linecap="round" stroke-linejoin="round"/>
<path d="M215.625 84.8554C215.625 97.7538 211.628 106.509 203.603 111.061L201.385 112.17L201.063 112.316L179.819 122.967L145.239 140.243C153.264 135.69 157.262 126.936 157.262 114.037C157.262 113.045 157.232 112.053 157.174 111.061C156.824 103.007 154.898 94.7773 151.396 86.3729C149.733 82.2875 147.661 78.1436 145.239 73.9415C143.459 70.8774 141.62 67.9887 139.665 65.2747C132.895 55.7907 125.103 48.5241 116.349 43.4465C105.96 37.4642 96.9427 36.1802 89.3555 39.6236L145.823 11.3758C153.818 6.82339 163.448 7.78637 174.712 14.2647C185.976 20.7723 195.607 30.9275 203.603 44.7596C211.628 58.5626 215.625 71.9279 215.625 84.8554Z" fill="#7762FF" stroke="#5037F3" stroke-width="2.8" stroke-linecap="round" stroke-linejoin="round"/>
<path d="M182.825 232.662V245.969L160.852 256.942V233.479L176.23 225.775C178.273 228.227 180.491 230.503 182.825 232.662Z" fill="#7762FF" stroke="#5037F3" stroke-width="2.8" stroke-linecap="round" stroke-linejoin="round"/>
<path d="M287.238 190.728C287.238 199.541 285.05 206.106 280.702 210.455C279.301 211.826 277.813 212.935 276.178 213.81L266.111 218.859L218.632 242.555L217.961 242.905C219.536 242.058 220.996 240.979 222.338 239.636C226.686 235.288 228.875 228.722 228.875 219.909C228.875 208.587 225.373 196.885 218.369 184.833C212.678 174.969 205.996 167.236 198.38 161.633C196.658 160.378 194.878 159.211 193.069 158.16C183.672 152.762 175.618 151.712 168.848 155.009L227.562 125.652C234.274 122.559 242.211 123.668 251.432 128.979C261.325 134.698 269.758 143.57 276.733 155.651C283.736 167.703 287.238 179.405 287.238 190.728Z" fill="#7762FF" stroke="#5037F3" stroke-width="2.8" stroke-linecap="round" stroke-linejoin="round"/>
<path d="M266.108 218.859L241.186 231.32L218.629 242.555L266.108 218.859Z" fill="#7762FF" stroke="#5037F3" stroke-width="2.8" stroke-linecap="round" stroke-linejoin="round"/>
</svg>
