<svg width="18" height="20" viewBox="0 0 18 20" fill="none" xmlns="http://www.w3.org/2000/svg">
<g style="mix-blend-mode:luminosity" clip-path="url(#clip0_6433_10951)">
<path d="M8.923 0.00585938C4.36493 0.00585938 4.64953 2.21096 4.64953 2.21096L4.65459 4.49551H9.00427V5.18139H2.92696C2.92696 5.18139 0.0102539 4.81237 0.0102539 9.94296C0.0102539 15.0737 2.55603 14.8917 2.55603 14.8917H4.07534V12.5109C4.07534 12.5109 3.99343 9.67088 6.58048 9.67088H10.8946C10.8946 9.67088 13.3184 9.71457 13.3184 7.05762V2.66453C13.3184 2.66453 13.6865 0.00585938 8.923 0.00585938ZM6.52459 1.54217C6.62737 1.54207 6.72917 1.56458 6.82415 1.60841C6.91913 1.65224 7.00542 1.71654 7.07811 1.79762C7.15079 1.8787 7.20842 1.97498 7.24771 2.08093C7.287 2.18689 7.30718 2.30045 7.30709 2.41511C7.30718 2.52978 7.287 2.64334 7.24771 2.7493C7.20842 2.85525 7.15079 2.95153 7.07811 3.03261C7.00542 3.11369 6.91913 3.17798 6.82415 3.22182C6.72917 3.26565 6.62737 3.28816 6.52459 3.28806C6.4218 3.28816 6.32 3.26565 6.22502 3.22182C6.13004 3.17798 6.04375 3.11369 5.97107 3.03261C5.89838 2.95153 5.84075 2.85525 5.80146 2.7493C5.76217 2.64334 5.74199 2.52978 5.74208 2.41511C5.74199 2.30045 5.76217 2.18689 5.80146 2.08093C5.84075 1.97498 5.89838 1.8787 5.97107 1.79762C6.04375 1.71654 6.13004 1.65224 6.22502 1.60841C6.32 1.56458 6.4218 1.54207 6.52459 1.54217Z" fill="url(#paint0_linear_6433_10951)"/>
<path d="M9.05244 19.9316C13.6105 19.9316 13.3259 17.7265 13.3259 17.7265L13.3208 15.442H8.97109V14.7562H15.0484C15.0484 14.7562 17.9651 15.1252 17.9651 9.99443C17.9651 4.86376 15.4193 5.04572 15.4193 5.04572H13.9V7.4265C13.9 7.4265 13.9819 10.2665 11.3949 10.2665H7.08078C7.08078 10.2665 4.65698 10.2228 4.65698 12.8798V17.273C4.65698 17.273 4.28893 19.9316 9.05237 19.9316H9.05244ZM11.4509 18.3954C11.3481 18.3955 11.2463 18.373 11.1513 18.3292C11.0563 18.2854 10.97 18.2211 10.8973 18.14C10.8247 18.0589 10.767 17.9626 10.7277 17.8567C10.6884 17.7507 10.6683 17.6372 10.6683 17.5225C10.6682 17.4078 10.6884 17.2943 10.7277 17.1883C10.767 17.0823 10.8246 16.986 10.8973 16.905C10.97 16.8239 11.0563 16.7596 11.1513 16.7157C11.2463 16.6719 11.3481 16.6494 11.4509 16.6495C11.5536 16.6494 11.6554 16.6719 11.7504 16.7157C11.8454 16.7596 11.9317 16.8239 12.0044 16.9049C12.0771 16.986 12.1347 17.0823 12.174 17.1882C12.2133 17.2942 12.2334 17.4078 12.2334 17.5224C12.2334 17.6371 12.2133 17.7506 12.174 17.8566C12.1347 17.9626 12.0771 18.0588 12.0044 18.1399C11.9317 18.221 11.8454 18.2853 11.7504 18.3291C11.6554 18.373 11.5536 18.3955 11.4509 18.3954Z" fill="url(#paint1_linear_6433_10951)"/>
</g>
<defs>
<linearGradient id="paint0_linear_6433_10951" x1="172.556" y1="179.227" x2="1158.2" y2="1053.94" gradientUnits="userSpaceOnUse">
<stop stop-color="#387EB8"/>
<stop offset="1" stop-color="#366994"/>
</linearGradient>
<linearGradient id="paint1_linear_6433_10951" x1="259.334" y1="311.398" x2="1312.51" y2="1203.86" gradientUnits="userSpaceOnUse">
<stop stop-color="#FFE052"/>
<stop offset="1" stop-color="#FFC331"/>
</linearGradient>
<clipPath id="clip0_6433_10951">
<rect width="18" height="20" fill="white"/>
</clipPath>
</defs>
</svg>
