<svg width="18" height="20" viewBox="0 0 18 20" fill="none" xmlns="http://www.w3.org/2000/svg">
<g style="mix-blend-mode:luminosity" clip-path="url(#clip0_6433_10947)">
<path d="M17.877 9.75491L17.1214 9.23515C17.115 9.15355 17.1078 9.07204 17.0999 8.99062L17.7493 8.31757C17.7817 8.28405 17.8059 8.24183 17.8195 8.19496C17.8331 8.14809 17.8357 8.09812 17.827 8.04984C17.8184 8.00152 17.7989 7.95644 17.7702 7.91891C17.7415 7.88138 17.7047 7.85264 17.6631 7.83546L16.833 7.49054C16.8121 7.41089 16.7904 7.33151 16.7679 7.25241L17.2858 6.45327C17.3117 6.41332 17.328 6.36667 17.3332 6.31774C17.3383 6.26881 17.3321 6.21924 17.3151 6.17372C17.2982 6.12821 17.271 6.08827 17.2363 6.0577C17.2015 6.02713 17.1603 6.00694 17.1165 5.99905L16.2411 5.84085C16.2071 5.7671 16.1717 5.69445 16.1359 5.62241L16.5037 4.7253C16.5223 4.68054 16.5301 4.63124 16.5266 4.58213C16.523 4.53302 16.5082 4.48575 16.4835 4.44484C16.459 4.40379 16.4254 4.37044 16.386 4.34797C16.3465 4.32551 16.3025 4.31469 16.2582 4.31655L15.3698 4.35093C15.3239 4.28707 15.2771 4.22402 15.2294 4.16179L15.4336 3.20023C15.4438 3.15227 15.4428 3.10221 15.4307 3.05481C15.4185 3.00741 15.3957 2.96425 15.3643 2.92944C15.3329 2.8946 15.2941 2.86924 15.2515 2.85576C15.2089 2.84228 15.1638 2.84112 15.1207 2.85241L14.2555 3.07905C14.1993 3.02614 14.1425 2.97416 14.0849 2.92312L14.116 1.93601C14.1177 1.8868 14.1079 1.83793 14.0878 1.79409C14.0676 1.75026 14.0376 1.71291 14.0007 1.68562C13.9639 1.65821 13.9213 1.64175 13.8771 1.63778C13.833 1.63381 13.7886 1.64248 13.7483 1.66296L12.9411 2.07187C12.876 2.03194 12.8104 1.99287 12.7445 1.95468L12.6018 0.981867C12.5946 0.93329 12.5764 0.887545 12.5489 0.848967C12.5214 0.810389 12.4855 0.780255 12.4446 0.761422C12.4036 0.742589 12.359 0.73568 12.315 0.741349C12.271 0.747019 12.2291 0.76508 12.1931 0.79382L11.4734 1.36921C11.4026 1.34421 11.3314 1.32007 11.2595 1.29718L10.9491 0.374601C10.9336 0.328382 10.9078 0.287336 10.874 0.255385C10.8402 0.223434 10.7996 0.201645 10.7561 0.192101C10.7126 0.182605 10.6677 0.185555 10.6256 0.200672C10.5835 0.215789 10.5455 0.242576 10.5153 0.278507L9.90956 1.00062C9.83631 0.991495 9.76294 0.983525 9.68948 0.976711L9.22169 0.136867C9.19839 0.0950176 9.16584 0.0604785 9.12715 0.0365256C9.08845 0.0125727 9.04489 0 9.0006 0C8.9563 0 8.91274 0.0125727 8.87405 0.0365256C8.83536 0.0604785 8.80281 0.0950176 8.7795 0.136867L8.31171 0.976711C8.23818 0.983516 8.16475 0.991485 8.09142 1.00062L7.48554 0.278507C7.45534 0.242443 7.41734 0.215564 7.37516 0.200428C7.33297 0.185292 7.288 0.182402 7.24452 0.192034C7.20104 0.201665 7.16051 0.223498 7.12677 0.255454C7.09304 0.28741 7.06722 0.328427 7.05178 0.374601L6.74142 1.29718C6.66949 1.32007 6.59834 1.34437 6.52732 1.36921L5.80774 0.79382C5.7718 0.764947 5.72978 0.746805 5.68573 0.741129C5.64167 0.735452 5.59703 0.742431 5.55609 0.761398C5.51519 0.780274 5.4793 0.810424 5.4518 0.849001C5.4243 0.887577 5.40611 0.933306 5.39895 0.981867L5.25621 1.95468C5.19012 1.99273 5.1248 2.03187 5.05962 2.07187L4.25236 1.66288C4.21207 1.64239 4.16772 1.63372 4.12355 1.6377C4.07938 1.64168 4.03687 1.65818 4.00008 1.68562C3.96316 1.71289 3.93315 1.75023 3.91294 1.79407C3.89273 1.83791 3.88298 1.88678 3.88462 1.93601L3.91556 2.92312C3.85808 2.97425 3.80122 3.02624 3.74498 3.07905L2.87979 2.85249C2.83663 2.84125 2.7916 2.84242 2.74896 2.85589C2.70632 2.86935 2.66748 2.89467 2.63609 2.92944C2.60468 2.96425 2.58183 3.00741 2.56969 3.05481C2.55755 3.10221 2.55654 3.15227 2.56676 3.20023L2.77059 4.16179C2.72327 4.22405 2.67652 4.2871 2.6306 4.35093L1.74213 4.31655C1.69789 4.315 1.65401 4.32595 1.61461 4.34837C1.57521 4.37079 1.54157 4.40396 1.51685 4.44476C1.4922 4.48569 1.47737 4.53294 1.47379 4.58204C1.47021 4.63113 1.47799 4.68042 1.49639 4.72523L1.86441 5.62241C1.82862 5.69445 1.79325 5.7671 1.75894 5.84085L0.883617 5.99905C0.839875 6.00698 0.798681 6.02719 0.763941 6.05777C0.729201 6.08835 0.702067 6.12828 0.685114 6.17378C0.668161 6.21928 0.661951 6.26883 0.667072 6.31775C0.672193 6.36666 0.688475 6.41331 0.714375 6.45327L1.23223 7.25249C1.20973 7.3314 1.18786 7.41062 1.16719 7.49054L0.336938 7.83546C0.295475 7.85277 0.258672 7.88154 0.230013 7.91907C0.201354 7.95659 0.181786 8.00162 0.173162 8.04989C0.164538 8.09816 0.167143 8.14808 0.180729 8.19492C0.194316 8.24176 0.218435 8.28398 0.250805 8.31757L0.900281 8.99054C0.892195 9.07179 0.885024 9.15359 0.878836 9.23515L0.123047 9.75491C0.0853885 9.78082 0.0543156 9.81699 0.0327797 9.85999C0.0112438 9.903 -3.9971e-05 9.9514 1.06387e-07 10.0006C1.06387e-07 10.1009 0.0466173 10.1938 0.123117 10.2462L0.878836 10.7659C0.885024 10.8477 0.892195 10.9294 0.900281 11.0105L0.250734 11.6837C0.218307 11.7173 0.194137 11.7595 0.180518 11.8063C0.166899 11.8532 0.164284 11.9031 0.172921 11.9514C0.181557 11.9997 0.201159 12.0447 0.229866 12.0822C0.258572 12.1197 0.295429 12.1485 0.336938 12.1657L1.16719 12.5106C1.18786 12.5905 1.20973 12.6698 1.23223 12.7487L0.714375 13.548C0.688427 13.5879 0.672109 13.6346 0.666976 13.6835C0.661843 13.7324 0.668065 13.782 0.685049 13.8275C0.702033 13.873 0.729215 13.913 0.764008 13.9435C0.798802 13.9741 0.84005 13.9942 0.883828 14.002L1.75901 14.1602C1.79325 14.234 1.82834 14.3066 1.86448 14.379L1.49639 15.2759C1.47796 15.3207 1.47016 15.3699 1.47374 15.419C1.47732 15.4681 1.49217 15.5154 1.51685 15.5563C1.5414 15.5973 1.575 15.6306 1.61444 15.6531C1.65388 15.6755 1.69785 15.6864 1.74213 15.6845L2.63018 15.65C2.67652 15.7141 2.72313 15.777 2.77059 15.8395L2.56676 16.8012C2.55655 16.8491 2.55757 16.8991 2.5697 16.9464C2.58184 16.9937 2.6047 17.0368 2.63609 17.0715C2.66739 17.1064 2.70624 17.1318 2.74891 17.1452C2.79158 17.1587 2.83665 17.1597 2.87979 17.1483L3.74498 16.9219C3.80123 16.975 3.85819 17.0266 3.91563 17.0773L3.8847 18.0648C3.8831 18.114 3.89286 18.1628 3.91304 18.2066C3.93323 18.2505 3.96317 18.2878 4.00001 18.3152C4.03686 18.3425 4.07939 18.3589 4.12356 18.3628C4.16773 18.3668 4.21207 18.3581 4.25236 18.3376L5.05962 17.9289C5.12462 17.969 5.19016 18.0081 5.25621 18.046L5.39895 19.0183C5.406 19.0669 5.42414 19.1127 5.45165 19.1514C5.47916 19.19 5.51512 19.2202 5.55609 19.239C5.59705 19.2578 5.64165 19.2648 5.68568 19.2591C5.72972 19.2535 5.77173 19.2354 5.80774 19.2067L6.52697 18.6309C6.59798 18.6559 6.66935 18.6804 6.74121 18.7034L7.05164 19.6255C7.0671 19.6717 7.09295 19.7127 7.12673 19.7446C7.16051 19.7764 7.20109 19.7982 7.24458 19.8076C7.28802 19.8174 7.33298 19.8146 7.37515 19.7994C7.41733 19.7843 7.45529 19.7574 7.4854 19.7212L8.09128 18.9995C8.16441 19.0089 8.23795 19.0167 8.31157 19.024L8.77936 19.8637C8.8027 19.9054 8.83524 19.9399 8.8739 19.9639C8.91257 19.9878 8.95609 20.0003 9.00035 20.0004C9.04463 20.0004 9.08818 19.9878 9.12687 19.9639C9.16557 19.94 9.19813 19.9055 9.22148 19.8637L9.68927 19.024C9.76289 19.0167 9.83637 19.0089 9.90942 18.9995L10.5152 19.7212C10.5453 19.7573 10.5832 19.7842 10.6254 19.7994C10.6675 19.8145 10.7125 19.8173 10.7559 19.8076C10.7994 19.7981 10.84 19.7764 10.8737 19.7445C10.9075 19.7126 10.9334 19.6717 10.9489 19.6255L11.2593 18.7034C11.3311 18.6804 11.4026 18.6559 11.4736 18.6309L12.193 19.2067C12.2289 19.2355 12.2709 19.2535 12.315 19.2592C12.359 19.2648 12.4036 19.2579 12.4445 19.239C12.4855 19.2201 12.5214 19.1899 12.5489 19.1513C12.5764 19.1127 12.5945 19.0669 12.6016 19.0183L12.7444 18.046C12.8104 18.008 12.8757 17.9684 12.9409 17.9288L13.7481 18.3376C13.7884 18.3581 13.8328 18.3669 13.877 18.363C13.9212 18.3591 13.9637 18.3427 14.0006 18.3153C14.0375 18.288 14.0674 18.2506 14.0876 18.2067C14.1078 18.1629 14.1175 18.114 14.1159 18.0648L14.0849 17.0774C14.1425 17.0266 14.1993 16.9747 14.2553 16.9219L15.1206 17.1483C15.2085 17.1712 15.3006 17.1428 15.3641 17.0715C15.3954 17.0368 15.4183 16.9937 15.4304 16.9464C15.4426 16.8991 15.4436 16.8491 15.4334 16.8012L15.2296 15.8395C15.2771 15.777 15.3238 15.7141 15.3695 15.65L16.258 15.6845C16.3023 15.6864 16.3463 15.6756 16.3857 15.6531C16.4251 15.6307 16.4587 15.5974 16.4833 15.5564C16.508 15.5155 16.5229 15.4682 16.5264 15.419C16.53 15.3699 16.5221 15.3206 16.5036 15.2758L16.1357 14.3791C16.1717 14.3066 16.207 14.234 16.241 14.1603L17.1164 14.002C17.1601 13.9942 17.2014 13.9741 17.2361 13.9435C17.2709 13.9129 17.298 13.8729 17.3148 13.8273C17.3318 13.7819 17.338 13.7323 17.3329 13.6834C17.3278 13.6345 17.3115 13.5879 17.2856 13.548L16.7678 12.7487C16.7901 12.6698 16.812 12.5905 16.8328 12.5106L17.6629 12.1657C17.7045 12.1485 17.7414 12.1198 17.7701 12.0822C17.7988 12.0447 17.8183 11.9996 17.8268 11.9512C17.8356 11.903 17.833 11.853 17.8194 11.8062C17.8058 11.7594 17.7816 11.7172 17.7491 11.6837L17.0997 11.0105C17.1076 10.9293 17.1148 10.8476 17.1212 10.766L17.8769 10.2462C17.9146 10.2203 17.9457 10.1842 17.9672 10.1412C17.9888 10.0982 18 10.0498 18 10.0006C18 9.90054 17.9536 9.80749 17.877 9.75491ZM12.8193 16.7202C12.5307 16.6511 12.3472 16.3351 12.4092 16.0134C12.4709 15.6922 12.7551 15.4877 13.0436 15.5569C13.3322 15.6255 13.516 15.9421 13.4541 16.2631C13.3922 16.5842 13.1077 16.7889 12.8193 16.7202ZM12.5625 14.7906C12.4999 14.7757 12.4353 14.7746 12.3723 14.7875C12.3093 14.8004 12.2492 14.8269 12.1955 14.8656C12.1417 14.9043 12.0954 14.9544 12.0591 15.013C12.0227 15.0716 11.9972 15.1376 11.9839 15.2072L11.7155 16.5984C10.8876 17.0159 9.96827 17.2478 9 17.2478C8.00958 17.2478 7.0702 17.0044 6.22758 16.5691L5.95941 15.178C5.90302 14.8852 5.64398 14.6987 5.38088 14.7616L4.27556 15.0253C4.07014 14.7904 3.87921 14.5403 3.70406 14.2769H9.08227C9.14309 14.2769 9.18366 14.2646 9.18366 14.203V12.0892C9.18366 12.0277 9.14309 12.0155 9.0822 12.0155H7.50938V10.6756H9.21059C9.36584 10.6756 10.0409 10.7248 10.2567 11.6836C10.3243 11.9784 10.4727 12.9375 10.5742 13.2445C10.6753 13.5889 11.087 14.2768 11.5258 14.2768H14.2057C14.2362 14.2768 14.2687 14.273 14.3029 14.2661C14.117 14.5467 13.9133 14.8122 13.6934 15.0606L12.5625 14.7906ZM5.12416 16.6912C4.83553 16.7604 4.5514 16.5559 4.48931 16.2347C4.42758 15.9129 4.61109 15.597 4.89966 15.5279C5.18829 15.4593 5.47256 15.6637 5.53444 15.9849C5.59617 16.306 5.41259 16.6224 5.12416 16.6912ZM3.08391 7.49898C3.20365 7.79913 3.0818 8.15093 2.81201 8.28374C2.54222 8.41694 2.22645 8.2814 2.10677 7.98101C1.98703 7.68062 2.10881 7.32944 2.37867 7.19624C2.44286 7.16461 2.51202 7.14735 2.58222 7.14544C2.65241 7.14354 2.72226 7.15702 2.78775 7.18513C2.85325 7.21324 2.91312 7.25542 2.96394 7.30926C3.01476 7.3631 3.05552 7.42762 3.08391 7.49898ZM2.45686 9.15054L3.6083 8.58202C3.7265 8.5236 3.81899 8.41542 3.86546 8.28127C3.91192 8.14711 3.90854 7.99795 3.85608 7.86655L3.61898 7.27077H4.55161V11.9417H2.66998C2.50318 11.2893 2.4188 10.6143 2.41924 9.93609C2.41924 9.67062 2.43211 9.40835 2.45686 9.15054ZM7.50966 8.69687V7.32007H9.73055C9.8453 7.32007 10.5405 7.46741 10.5405 8.04507C10.5405 8.52468 10.0073 8.69663 9.56876 8.69663H7.50966V8.69687ZM15.581 9.93609C15.581 10.1187 15.5749 10.2995 15.5629 10.4789H14.8877C14.8201 10.4789 14.7929 10.5283 14.7929 10.6018V10.9463C14.7929 11.7573 14.3814 11.9337 14.0207 11.9786C13.6773 12.0216 13.2965 11.8188 13.2496 11.5853C13.047 10.3192 12.7094 10.0488 12.1763 9.58155C12.8379 9.11476 13.5263 8.42609 13.5263 7.50421C13.5263 6.5089 12.9122 5.88194 12.4935 5.57452C11.9063 5.14437 11.256 5.05812 11.0806 5.05812H4.09774C5.04464 3.8839 6.32798 3.0521 7.77945 2.74945L8.60252 3.70882C8.64668 3.76032 8.69955 3.80163 8.7581 3.8304C8.81664 3.85916 8.87972 3.87481 8.94372 3.87645C9.00772 3.87809 9.07138 3.86569 9.13106 3.83995C9.19074 3.81422 9.24527 3.77566 9.29152 3.72648L10.2125 2.74773C12.1422 3.14694 13.776 4.48163 14.7176 6.3128L14.0871 7.89507C13.9783 8.1689 14.0894 8.48913 14.3351 8.61046L15.549 9.20952C15.5699 9.44898 15.581 9.69085 15.581 9.93609ZM8.60287 1.93327C8.81613 1.70632 9.15441 1.7153 9.35859 1.95257C9.56236 2.19054 9.55463 2.56679 9.34088 2.79359C9.12762 3.02062 8.78934 3.01179 8.58516 2.77405C8.48732 2.65986 8.43424 2.50721 8.43756 2.34959C8.44088 2.19197 8.50033 2.04225 8.60287 1.93327ZM14.8595 7.5278C14.8879 7.45645 14.9286 7.39202 14.9794 7.33818C15.0302 7.28435 15.0901 7.24218 15.1556 7.21408C15.2211 7.18599 15.2909 7.17252 15.3611 7.17444C15.4313 7.17637 15.5004 7.19365 15.5646 7.2253C15.8344 7.35827 15.9562 7.70991 15.8365 8.01007C15.8081 8.08145 15.7674 8.14592 15.7166 8.19979C15.6658 8.25365 15.6059 8.29585 15.5404 8.32397C15.4749 8.35209 15.405 8.36558 15.3348 8.36366C15.2646 8.36175 15.1954 8.34446 15.1312 8.3128C14.8617 8.17976 14.74 7.82843 14.8595 7.5278Z" fill="url(#paint0_linear_6433_10947)"/>
</g>
<defs>
<linearGradient id="paint0_linear_6433_10947" x1="9" y1="0" x2="9" y2="20.0004" gradientUnits="userSpaceOnUse">
<stop offset="0.285" stop-color="#F49100"/>
<stop offset="1" stop-color="#EE4800"/>
</linearGradient>
<clipPath id="clip0_6433_10947">
<rect width="18" height="20" fill="white"/>
</clipPath>
</defs>
</svg>
